<svg width="291" height="64" viewBox="0 0 291 64" fill="none" xmlns="http://www.w3.org/2000/svg">
<path fill-rule="evenodd" clip-rule="evenodd" d="M41.2344 30.6323H41.2357C41.2357 20.1751 28.9764 6.55985 20.4491 0C19.3009 5.66743 15.9473 16.1642 12.1607 16.1642C10.1638 16.1642 10.8563 13.7727 11.7143 12.0641C11.2567 12.4044 10.7852 12.7445 10.3062 13.09L10.3061 13.0901C5.5284 16.5365 0 20.5244 0 30.6323H0.00123384C-0.00378096 30.8839 0.00645767 31.1375 0.032562 31.392L1.80638 48.6868C1.99744 50.5496 3.01803 52.227 4.58455 53.253L17.212 61.5229C19.2805 62.8775 21.9552 62.8775 24.0237 61.5229L36.6511 53.253C38.2176 52.227 39.2382 50.5496 39.4293 48.6868L41.2031 31.392C41.2292 31.1375 41.2395 30.8839 41.2344 30.6323ZM33.5922 35.9398L33.7495 32.8362L32.0298 36.1974C29.2379 36.6267 26.394 36.8985 23.5076 37.0034C23.334 37.6001 23.2409 38.2312 23.2409 38.884C23.2409 42.478 26.0629 45.4129 29.6119 45.5937L29.444 48.9048L31.1913 45.4899C34.3134 44.9113 36.6779 42.1738 36.6779 38.884C36.6779 37.6586 36.3498 36.5099 35.7768 35.5208C35.0524 35.6712 34.3242 35.8109 33.5922 35.9398ZM5.81432 35.5239C5.24209 36.5124 4.91455 37.6604 4.91455 38.8848C4.91455 42.5953 7.92253 45.6033 11.6331 45.6033C15.3436 45.6033 18.3516 42.5953 18.3516 38.8848C18.3516 38.2329 18.2587 37.6027 18.0856 37.0067C13.8959 36.8545 9.79593 36.3507 5.81432 35.5239ZM269.113 51.9887C270.993 53.1376 273.169 53.7121 275.641 53.7121C277.243 53.7121 278.74 53.3987 280.132 52.7721C280.772 52.4682 281.364 52.1167 281.908 51.7174V53.1898H290.838V15.1193H281.751V28.8391C281.251 28.5234 280.711 28.2498 280.132 28.0183C278.74 27.4265 277.243 27.1306 275.641 27.1306C273.135 27.1306 270.941 27.705 269.061 28.8539C267.216 29.968 265.754 31.5347 264.674 33.554C263.63 35.5733 263.108 37.8711 263.108 40.4474C263.108 42.9889 263.63 45.2693 264.674 47.2886C265.754 49.2731 267.233 50.8398 269.113 51.9887ZM279.871 44.9908C279.14 45.4086 278.27 45.6175 277.26 45.6175C276.32 45.6175 275.467 45.3912 274.701 44.9386C273.935 44.486 273.343 43.8767 272.926 43.1108C272.508 42.31 272.299 41.4048 272.299 40.3952C272.299 39.4204 272.508 38.55 272.926 37.784C273.378 36.9833 273.97 36.3566 274.701 35.904C275.467 35.4514 276.338 35.2251 277.312 35.2251C278.287 35.2251 279.14 35.4514 279.871 35.904C280.637 36.3566 281.229 36.9659 281.647 37.7318C282.065 38.4978 282.274 39.3856 282.274 40.3952C282.274 41.4397 282.047 42.3623 281.595 43.163C281.177 43.929 280.602 44.5382 279.871 44.9908ZM64.2459 52.4065C66.6482 53.3813 69.2767 53.8687 72.1316 53.8687C74.9516 53.8687 77.5454 53.3987 79.9128 52.4587C82.3151 51.4839 84.404 50.1261 86.1796 48.3853C87.9551 46.6097 89.3303 44.5556 90.3052 42.223C91.3148 39.8904 91.8196 37.3663 91.8196 34.6507C91.8196 31.9351 91.3148 29.411 90.3052 27.0783C89.3303 24.7457 87.9551 22.709 86.1796 20.9682C84.404 19.2275 82.3151 17.8871 79.9128 16.9471C77.5106 15.9722 74.882 15.4848 72.0272 15.4848C69.1723 15.4848 66.5437 15.9722 64.1415 16.9471C61.7392 17.8871 59.6503 19.2275 57.8748 20.9682C56.0992 22.709 54.7066 24.7457 53.6969 27.0783C52.7221 29.3761 52.2347 31.8828 52.2347 34.5984C52.2347 37.314 52.7395 39.8556 53.7491 42.223C54.7588 44.5556 56.1514 46.5923 57.927 48.3331C59.7374 50.0739 61.8437 51.4317 64.2459 52.4065ZM77.4583 44.1553C75.9265 45.0605 74.1161 45.5131 72.0272 45.5131C70.4605 45.5131 69.0504 45.2693 67.7971 44.7819C66.5437 44.2597 65.4645 43.5286 64.5593 42.5886C63.6541 41.6137 62.9578 40.4648 62.4704 39.1418C62.0178 37.784 61.7915 36.2696 61.7915 34.5984C61.7915 32.4399 62.2092 30.5425 63.0448 28.9061C63.8804 27.2698 65.0641 26.0165 66.596 25.1461C68.1278 24.2409 69.9382 23.7883 72.0272 23.7883C73.5938 23.7883 75.0039 24.0494 76.2572 24.5716C77.5106 25.0939 78.5898 25.8424 79.495 26.8172C80.4002 27.7572 81.0791 28.8887 81.5317 30.2117C82.0191 31.5347 82.2628 32.9969 82.2628 34.5984C82.2628 36.7918 81.8451 38.7067 81.0095 40.343C80.1739 41.9793 78.9902 43.2501 77.4583 44.1553ZM106.522 52.8243C107.914 53.4161 109.429 53.7121 111.065 53.7121C113.537 53.7121 115.713 53.1376 117.593 51.9887C119.473 50.8398 120.935 49.2731 121.98 47.2886C123.059 45.2693 123.598 42.9889 123.598 40.4474C123.598 37.8711 123.059 35.5733 121.98 33.554C120.935 31.5347 119.473 29.968 117.593 28.8539C115.713 27.705 113.537 27.1306 111.065 27.1306C109.429 27.1306 107.914 27.4613 106.522 28.1228C105.964 28.3801 105.442 28.6784 104.955 29.0179V27.6528H95.8681V64H104.746V51.8692C105.286 52.2322 105.878 52.5506 106.522 52.8243ZM112.005 44.9386C111.239 45.3912 110.351 45.6175 109.342 45.6175C108.402 45.6175 107.549 45.3912 106.783 44.9386C106.052 44.486 105.477 43.8767 105.059 43.1108C104.642 42.31 104.433 41.4048 104.433 40.3952C104.433 39.3856 104.642 38.4978 105.059 37.7318C105.477 36.9311 106.069 36.3218 106.835 35.904C107.601 35.4514 108.454 35.2251 109.394 35.2251C110.369 35.2251 111.239 35.4514 112.005 35.904C112.771 36.3566 113.363 36.9659 113.781 37.7318C114.198 38.4978 114.407 39.3856 114.407 40.3952C114.407 41.4048 114.198 42.31 113.781 43.1108C113.363 43.8767 112.771 44.486 112.005 44.9386ZM140.233 53.7643C137.379 53.7643 134.855 53.2072 132.661 52.0932C130.468 50.9442 128.744 49.3601 127.491 47.3409C126.238 45.3216 125.611 43.0063 125.611 40.3952C125.611 37.8189 126.22 35.5385 127.439 33.554C128.657 31.5347 130.311 29.9506 132.4 28.8017C134.524 27.618 136.909 27.0261 139.555 27.0261C142.131 27.0261 144.411 27.5832 146.396 28.6972C148.415 29.7765 149.982 31.291 151.096 33.2406C152.245 35.1555 152.819 37.3489 152.819 39.8207C152.819 40.343 152.784 40.8826 152.715 41.4397C152.68 41.9619 152.576 42.5712 152.401 43.2675L134.488 43.3506C134.578 43.6313 134.683 43.8996 134.802 44.1553C135.29 45.1649 135.986 45.9308 136.891 46.4531C137.796 46.9753 138.911 47.2364 140.233 47.2364C141.487 47.2364 142.584 47.0275 143.524 46.6097C144.498 46.192 145.369 45.5479 146.135 44.6775L150.887 49.4298C149.634 50.8572 148.102 51.9365 146.291 52.6676C144.516 53.3987 142.496 53.7643 140.233 53.7643ZM134.75 36.7396C134.644 36.9766 134.55 37.225 134.469 37.485L144.419 37.4026C144.331 37.049 144.224 36.7235 144.098 36.4263C143.715 35.4862 143.158 34.7725 142.427 34.2851C141.696 33.7977 140.773 33.554 139.659 33.554C138.51 33.554 137.518 33.8325 136.682 34.3896C135.847 34.9466 135.203 35.7299 134.75 36.7396ZM172.805 38.7763V53.1898H181.892V36.6874C181.892 34.877 181.474 33.2581 180.639 31.8306C179.803 30.4032 178.654 29.2717 177.192 28.4361C175.765 27.5657 174.128 27.1306 172.283 27.1306C170.264 27.1306 168.454 27.5483 166.852 28.3839C166.307 28.6624 165.802 28.9829 165.338 29.3456V27.6528H156.251V53.1898H165.338V38.7763C165.338 37.9755 165.494 37.2966 165.808 36.7396C166.121 36.1825 166.556 35.7473 167.113 35.434C167.705 35.1207 168.367 34.964 169.098 34.964C170.177 34.964 171.065 35.3122 171.761 36.0085C172.457 36.67 172.805 37.5926 172.805 38.7763ZM199.335 53.7643C196.62 53.7643 194.165 53.1898 191.972 52.0409C189.813 50.892 188.107 49.3079 186.854 47.2886C185.6 45.2693 184.974 42.9889 184.974 40.4474C184.974 37.8711 185.6 35.5733 186.854 33.554C188.142 31.5347 189.865 29.9506 192.024 28.8017C194.217 27.618 196.689 27.0261 199.44 27.0261C201.424 27.0261 203.234 27.3569 204.871 28.0183C206.507 28.6798 208.004 29.6721 209.362 30.9951L203.617 36.7396C203.095 36.2174 202.486 35.8344 201.79 35.5907C201.128 35.3122 200.345 35.1729 199.44 35.1729C198.465 35.1729 197.577 35.3992 196.776 35.8518C196.01 36.2696 195.384 36.8614 194.896 37.6274C194.444 38.3933 194.217 39.3159 194.217 40.3952C194.217 41.4397 194.444 42.3623 194.896 43.163C195.384 43.929 196.01 44.5382 196.776 44.9908C197.577 45.4434 198.465 45.6697 199.44 45.6697C200.414 45.6697 201.25 45.5131 201.946 45.1997C202.643 44.8864 203.252 44.4338 203.774 43.8419L209.571 49.5864C208.143 50.9791 206.594 52.0235 204.923 52.7198C203.287 53.4161 201.424 53.7643 199.335 53.7643ZM217.419 52.0409C219.577 53.1898 222.032 53.7643 224.782 53.7643C227.498 53.7643 229.918 53.1898 232.041 52.0409C234.2 50.8572 235.888 49.2557 237.107 47.2364C238.36 45.1823 238.987 42.8845 238.987 40.343C238.987 37.8015 238.36 35.5385 237.107 33.554C235.854 31.5347 234.148 29.9506 231.989 28.8017C229.865 27.618 227.446 27.0261 224.73 27.0261C222.015 27.0261 219.577 27.618 217.419 28.8017C215.26 29.9506 213.554 31.5347 212.301 33.554C211.083 35.5385 210.473 37.8015 210.473 40.343C210.473 42.8845 211.1 45.1823 212.353 47.2364C213.607 49.2557 215.295 50.8572 217.419 52.0409ZM227.341 45.043C226.61 45.4608 225.74 45.6697 224.73 45.6697C223.755 45.6697 222.885 45.4608 222.119 45.043C221.353 44.5905 220.761 43.9638 220.343 43.163C219.926 42.3623 219.717 41.4571 219.717 40.4474C219.717 39.403 219.926 38.4978 220.343 37.7318C220.761 36.9311 221.353 36.3044 222.119 35.8518C222.885 35.3992 223.755 35.1729 224.73 35.1729C225.74 35.1729 226.61 35.3992 227.341 35.8518C228.072 36.2696 228.647 36.8788 229.065 37.6796C229.517 38.4455 229.743 39.3507 229.743 40.3952C229.743 41.4397 229.535 42.3623 229.117 43.163C228.699 43.9638 228.107 44.5905 227.341 45.043ZM242.592 53.1898V27.6528H251.679V29.2786C253.343 27.8466 255.501 27.1306 258.154 27.1306C259.373 27.1306 260.417 27.2872 261.288 27.6006C262.193 27.9139 262.959 28.4013 263.586 29.0628L258.311 36.1129C258.033 35.7996 257.632 35.5559 257.11 35.3818C256.622 35.1729 256.065 35.0685 255.439 35.0685C254.255 35.0685 253.332 35.434 252.671 36.1651C252.009 36.8614 251.679 37.9059 251.679 39.2985V53.1898H242.592Z" fill="white"/>
</svg>
