<svg width="152" height="39" viewBox="0 0 152 39" fill="none" xmlns="http://www.w3.org/2000/svg">
<g filter="url(#filter0_d_4647_120902)">
<mask id="mask0_4647_120902" style="mask-type:alpha" maskUnits="userSpaceOnUse" x="2" y="0" width="147" height="36">
<rect x="2" width="146.5" height="36" fill="#D9D9D9"/>
</mask>
<g mask="url(#mask0_4647_120902)">
<path fill-rule="evenodd" clip-rule="evenodd" d="M16.8845 31.535C15.8194 33.5754 14.57 35 13 35C11.3056 35 10.0287 33.3406 8.97524 31.0385L5.29228 28.6265C4.50901 28.1135 3.99872 27.2748 3.90319 26.3434L3.01628 17.696C3.00323 17.5687 2.99811 17.4419 3.00062 17.3161H3.00001C3.00001 12.2622 5.76421 10.2683 8.15304 8.54507L8.15312 8.54501C8.39262 8.37225 8.62834 8.20221 8.85713 8.03207C8.42814 8.88637 8.08191 10.0821 9.08037 10.0821C10.9736 10.0821 12.6505 4.83372 13.2245 2C17.4882 5.27993 23.6178 12.0875 23.6178 17.3161H23.6172C23.6197 17.4419 23.6146 17.5687 23.6016 17.696L22.7146 26.3434C22.6191 27.2748 22.1088 28.1135 21.3256 28.6265L16.8845 31.535ZM19.7963 19.9697L19.875 18.4181L19.0152 20.0985C17.6188 20.3133 16.1964 20.4492 14.7527 20.5017C14.6658 20.8 14.6193 21.1156 14.6193 21.442C14.6193 23.2394 16.031 24.7072 17.8062 24.7969L17.7222 26.4524L18.596 24.7446C20.1563 24.4547 21.3378 23.0863 21.3378 21.442C21.3378 20.8293 21.1738 20.2549 20.8872 19.7604C20.5255 19.8355 20.1619 19.9053 19.7963 19.9697ZM5.90692 19.7619C5.6208 20.2562 5.45703 20.8301 5.45703 21.4423C5.45703 23.2976 6.96102 24.8016 8.81629 24.8016C10.6716 24.8016 12.1755 23.2976 12.1755 21.4423C12.1755 21.1164 12.1291 20.8013 12.0425 20.5033C9.9477 20.4272 7.89772 20.1753 5.90692 19.7619ZM39.879 24.7005C39.0949 27.2205 38.6838 28.9344 39.0657 28.9344C40.4757 28.9344 41.7725 28.6994 42.9563 28.2294C44.1574 27.7419 45.2018 27.063 46.0896 26.1927C46.9774 25.3049 47.665 24.2778 48.1524 23.1115C48.6572 21.9452 48.9097 20.6831 48.9097 19.3253C48.9097 17.9675 48.6572 16.7055 48.1524 15.5392C47.665 14.3729 46.9774 13.3545 46.0896 12.4841C45.5883 11.9926 45.0369 11.5649 44.4356 11.201C45.6621 7.5081 46.4955 4.66472 46.0896 4.50002C45.6866 4.33647 44.0655 6.82 42.055 10.1597C41.1057 9.88153 40.0919 9.74241 39.0134 9.74241C37.586 9.74241 36.2717 9.98612 35.0706 10.4735C33.8695 10.9435 32.825 11.6137 31.9372 12.4841C31.0494 13.3545 30.3531 14.3729 29.8483 15.5392C29.3609 16.6881 29.1172 17.9414 29.1172 19.2992C29.1172 20.657 29.3696 21.9278 29.8744 23.1115C30.3792 24.2778 31.0755 25.2962 31.9633 26.1665C32.2087 26.4025 33.2706 24.883 34.7122 22.5521C34.8784 22.8186 35.0675 23.066 35.2795 23.2943C35.7321 23.7643 36.2717 24.1299 36.8984 24.391C37.5251 24.6347 38.2301 24.7565 39.0134 24.7565C39.3134 24.7565 39.602 24.7379 39.879 24.7005ZM42.935 15.6166L42.558 16.7109C41.5669 19.5861 40.5757 22.4615 39.879 24.7005C40.5664 24.6078 41.1831 24.4002 41.729 24.0776C42.495 23.625 43.0868 22.9897 43.5046 22.1715C43.9224 21.3533 44.1313 20.3959 44.1313 19.2992C44.1313 18.4985 44.0094 17.7674 43.7657 17.1059C43.5718 16.5392 43.2949 16.0428 42.935 15.6166ZM39.8137 13.943C39.5567 13.9104 39.29 13.8941 39.0134 13.8941C37.969 13.8941 37.0638 14.1204 36.2978 14.573C35.5319 15.0082 34.94 15.6349 34.5223 16.4531C34.1045 17.2712 33.8956 18.22 33.8956 19.2992C33.8956 20.1348 34.0087 20.892 34.235 21.5709C34.3646 21.9226 34.5236 22.2496 34.7122 22.5521C35.8969 20.6367 37.3379 18.1735 38.7931 15.6861L38.7935 15.6855L38.7937 15.6851L38.794 15.6846L38.794 15.6845C39.1342 15.1031 39.4751 14.5203 39.8137 13.943ZM39.8137 13.943C40.2848 14.0026 40.723 14.1169 41.1285 14.2858C41.7551 14.5469 42.2948 14.9212 42.7474 15.4086C42.8122 15.476 42.8748 15.5453 42.935 15.6166C43.4607 14.0896 43.9758 12.5856 44.4356 11.201C43.9722 10.9206 43.4791 10.6781 42.9563 10.4735C42.6626 10.3544 42.3622 10.2498 42.055 10.1597C41.3444 11.3402 40.5851 12.6276 39.8137 13.943ZM56.2606 28.4121C56.9569 28.7081 57.7142 28.856 58.5323 28.856C59.7683 28.856 60.8563 28.5688 61.7963 27.9943C62.7363 27.4199 63.4674 26.6366 63.9896 25.6443C64.2515 25.1544 62.1964 24.6988 60.0113 24.2143L60.011 24.2143C59.8363 24.1755 59.6607 24.1366 59.4855 24.0975C59.6447 23.9387 59.7796 23.758 59.8901 23.5554C60.099 23.155 60.2035 22.7024 60.2035 22.1976C60.2035 21.6928 60.099 21.2489 59.8901 20.8659C59.8325 20.7602 59.7682 20.6605 59.6973 20.5667L59.9841 20.485C62.1793 19.8596 64.2526 19.269 63.9896 18.777C63.4674 17.7674 62.7363 16.984 61.7963 16.427C60.8563 15.8525 59.7683 15.5653 58.5323 15.5653C57.7142 15.5653 56.9569 15.7307 56.2606 16.0614C55.9819 16.19 55.7208 16.3392 55.4773 16.5089V15.8264H50.9339V34H55.3729V27.9346C55.6427 28.1161 55.9387 28.2753 56.2606 28.4121ZM59.0023 19.952C59.2796 20.1159 59.5113 20.3208 59.6973 20.5667C57.4763 21.2005 55.2292 21.8668 55.2292 22.5C55.2205 22.4014 55.2162 22.3006 55.2162 22.1976C55.2162 21.6928 55.3206 21.2489 55.5295 20.8659C55.7384 20.4655 56.0343 20.1609 56.4173 19.952C56.8003 19.7257 57.2268 19.6126 57.6968 19.6126C58.1842 19.6126 58.6194 19.7257 59.0023 19.952ZM55.234 22.55C55.3459 23.1332 57.3952 23.6307 59.4855 24.0975C59.3437 24.2388 59.1827 24.3627 59.0023 24.4693C58.6194 24.6956 58.1755 24.8088 57.6707 24.8088C57.2007 24.8088 56.7742 24.6956 56.3912 24.4693C56.0256 24.243 55.7384 23.9384 55.5295 23.5554C55.3705 23.2506 55.272 22.9154 55.234 22.55ZM55.234 22.55C55.2323 22.5334 55.2307 22.5168 55.2292 22.5C55.2292 22.5168 55.2308 22.5334 55.234 22.55ZM73.1166 28.8821C71.6892 28.8821 70.4271 28.6036 69.3304 28.0466C68.2338 27.4721 67.3721 26.6801 66.7454 25.6704C66.1187 24.6608 65.8054 23.5032 65.8054 22.1976C65.8054 20.9094 66.11 19.7692 66.7193 18.777C67.3286 17.7674 68.1554 16.9753 69.1999 16.4008C69.5951 16.1806 70.0554 17.8532 70.5458 20.0401C70.4838 20.1441 70.4268 20.254 70.3749 20.3698C70.3218 20.4883 70.2749 20.6125 70.2343 20.7425L70.7 20.7387C70.8008 21.2016 70.9027 21.6799 71.0054 22.162C71.1126 22.665 71.2207 23.1722 71.3293 23.6703L70.2439 23.6753C70.289 23.8157 70.3413 23.9498 70.401 24.0776C70.6447 24.5825 70.9929 24.9654 71.4455 25.2265C71.5306 25.2757 71.6195 25.3202 71.712 25.3601C72.1865 27.3508 72.6638 28.8821 73.1166 28.8821ZM74.2732 25.4769C74.4445 25.4308 74.6073 25.3735 74.7616 25.3049C75.249 25.096 75.6842 24.7739 76.0672 24.3387L78.4433 26.7149C77.8167 27.4286 77.0507 27.9682 76.1455 28.3338C75.2577 28.6994 74.2481 28.8821 73.1166 28.8821C73.5484 28.8821 73.9254 27.4114 74.2732 25.4769ZM74.5763 23.6552C74.4774 24.2858 74.3766 24.9018 74.2732 25.4769C73.923 25.5711 73.5375 25.6182 73.1166 25.6182C72.5796 25.6182 72.1114 25.5322 71.712 25.3601C71.5841 24.8232 71.4563 24.2529 71.3293 23.6703L74.5763 23.6552ZM75.0271 20.7028C74.963 21.1177 74.8984 21.5449 74.8332 21.9761L74.8329 21.9782C74.7486 22.5365 74.6632 23.1014 74.5763 23.6552L79.2006 23.6337C79.2876 23.2856 79.3398 22.9809 79.3572 22.7198C79.3921 22.4413 79.4095 22.1715 79.4095 21.9104C79.4095 20.6744 79.1222 19.5778 78.5478 18.6203C77.9907 17.6455 77.2074 16.8883 76.1977 16.3486C75.8123 16.1322 75.4557 17.9757 75.0882 20.3112C75.0755 20.2778 75.0624 20.2452 75.0488 20.2131C74.8574 19.7431 74.5788 19.3863 74.2133 19.1426C73.8477 18.8989 73.3864 18.777 72.8294 18.777C72.2549 18.777 71.7588 18.9163 71.341 19.1948C71.0191 19.4094 70.754 19.6912 70.5458 20.0401C70.5969 20.2679 70.6483 20.5013 70.7 20.7387L75.0271 20.7028ZM75.0271 20.7028L75.2093 20.7013C75.1747 20.5626 75.1343 20.4325 75.0882 20.3112C75.0679 20.4403 75.0475 20.5709 75.0271 20.7028ZM89.4026 25.2319V28.5949H93.7079C94.0272 28.7792 94.0845 28.7256 93.946 28.494V20.3437C93.946 19.4385 93.7371 18.629 93.3193 17.9153C92.9015 17.2016 92.3271 16.6359 91.596 16.2181C90.8822 15.7829 90.0641 15.5653 89.1415 15.5653C88.1318 15.5653 87.2266 15.7742 86.4259 16.192C86.1535 16.3312 85.9011 16.4915 85.6687 16.6728V15.8264H81.1253V28.5949H85.6687V22.0752C87.1315 23.3253 88.3675 24.3698 89.4026 25.2319ZM89.4026 23.4404V25.2319C91.836 27.2587 93.159 28.2782 93.7079 28.5949H93.946V28.494C93.544 27.8222 91.4928 25.6519 89.4107 23.4489L89.4026 23.4404ZM86.1867 19.9954C86.2949 19.8876 86.4182 19.7948 86.5564 19.717C86.8524 19.5603 87.1831 19.482 87.5487 19.482C88.0883 19.482 88.5322 19.6561 88.8804 20.0042C89.2285 20.335 89.4026 20.7963 89.4026 21.3881V23.4404C88.2474 22.2181 87.0834 20.9864 86.1867 19.9954ZM85.6687 21.3881V19.4154C85.8284 19.597 86.0018 19.7911 86.1867 19.9954C86.0769 20.1047 85.9826 20.2295 85.9037 20.3698C85.747 20.6483 85.6687 20.9878 85.6687 21.3881ZM85.6687 21.3881L83.8931 20.5526C84.5189 21.091 85.1103 21.5981 85.6687 22.0752V21.3881ZM102.667 28.8821C101.31 28.8821 100.082 28.5949 98.9857 28.0205C97.9064 27.446 97.0535 26.654 96.4268 25.6443C95.8001 24.6347 95.4868 23.4945 95.4868 22.2237C95.4868 21.5996 97.6808 23.1717 100.014 24.8436C102.497 26.6227 105.138 28.5149 105.461 27.9943C105.676 27.6572 104.908 26.3164 103.83 24.6584C103.879 24.6403 103.926 24.6208 103.973 24.5999C104.321 24.4432 104.626 24.2169 104.887 23.921L107.785 26.7932C107.072 27.4895 106.297 28.0118 105.461 28.3599C104.643 28.7081 103.712 28.8821 102.667 28.8821ZM100.894 20.2778C101.044 20.1413 101.208 20.024 101.388 19.9259C101.788 19.6996 102.232 19.5865 102.72 19.5865C103.172 19.5865 103.564 19.6561 103.895 19.7953C104.243 19.9172 104.547 20.1087 104.809 20.3698L107.681 17.4975C107.002 16.836 106.253 16.3399 105.435 16.0092C104.617 15.6784 103.712 15.5131 102.72 15.5131C101.344 15.5131 100.108 15.809 99.0118 16.4008C98.5914 16.6246 99.575 18.2802 100.894 20.2778ZM100.894 20.2778C101.311 20.9086 101.761 21.5735 102.211 22.2382C102.773 23.0675 103.334 23.8965 103.83 24.6584C103.512 24.7761 103.142 24.8349 102.72 24.8349C102.232 24.8349 101.788 24.7217 101.388 24.4954C101.005 24.2691 100.692 23.9645 100.448 23.5815C100.222 23.1811 100.108 22.7198 100.108 22.1976C100.108 21.658 100.222 21.1967 100.448 20.8137C100.577 20.6106 100.726 20.4319 100.894 20.2778ZM111.709 28.0205C112.789 28.5949 114.016 28.8821 115.391 28.8821C116.749 28.8821 117.959 28.5949 119.021 28.0205C120.1 27.4286 120.944 26.6278 121.553 25.6182C122.18 24.5912 122.493 23.4423 122.493 22.1715C122.493 20.9007 122.18 19.7692 121.553 18.777C120.927 17.7674 120.074 16.9753 118.994 16.4008C118.547 16.1515 118.078 18.3284 117.583 20.9311C117.567 20.9002 117.55 20.8698 117.532 20.8398C117.323 20.4394 117.036 20.1348 116.67 19.9259C116.305 19.6996 115.87 19.5865 115.365 19.5865C114.878 19.5865 114.442 19.6996 114.059 19.9259C113.676 20.1522 113.38 20.4655 113.172 20.8659C113.165 20.878 113.159 20.8901 113.152 20.9022C112.645 18.3123 112.162 16.1524 111.709 16.4008C110.63 16.9753 109.777 17.7674 109.15 18.777C108.541 19.7692 108.237 20.9007 108.237 22.1715C108.237 23.4423 108.55 24.5912 109.177 25.6182C109.803 26.6278 110.647 27.4286 111.709 28.0205ZM116.936 24.3398C116.446 26.8026 115.933 28.8821 115.391 28.8821C114.852 28.8821 114.33 26.818 113.829 24.3672C113.902 24.4225 113.979 24.4739 114.059 24.5215C114.442 24.7304 114.878 24.8349 115.365 24.8349C115.87 24.8349 116.305 24.7304 116.67 24.5215C116.764 24.4662 116.853 24.4056 116.936 24.3398ZM116.936 24.3398C117.083 23.6021 117.227 22.8299 117.369 22.069L117.369 22.0688L117.371 22.0614L117.372 22.054C117.443 21.675 117.513 21.2988 117.583 20.9311C117.775 21.2941 117.872 21.7163 117.872 22.1976C117.872 22.7198 117.767 23.1811 117.558 23.5815C117.4 23.884 117.193 24.1367 116.936 24.3398ZM113.829 24.3672C113.68 23.6346 113.532 22.8675 113.386 22.1106L113.386 22.1105C113.308 21.7024 113.23 21.2973 113.152 20.9022C112.956 21.2774 112.858 21.7179 112.858 22.2237C112.858 22.7285 112.963 23.1811 113.172 23.5815C113.337 23.8977 113.556 24.1596 113.829 24.3672ZM124.296 28.5949V22.2107V15.8264H128.839V16.6419C128.906 16.599 128.901 16.6876 128.839 16.8814V21.6493L127.332 20.3743C125.765 23.8528 123.685 28.5 124.5 28.5C124.791 28.5 126.785 25.5753 128.839 22.5328V28.5949H124.296ZM130.864 19.5381C130.375 20.2559 129.855 21.0277 129.329 21.8063L128.839 22.5328V21.6493C128.839 20.953 129.005 20.4307 129.335 20.0826C129.666 19.717 130.127 19.5342 130.719 19.5342C130.768 19.5342 130.817 19.5355 130.864 19.5381ZM130.864 19.5381C132.317 17.4021 133.486 15.7434 133.644 15.8003C134.096 15.957 134.479 16.2007 134.793 16.5314L132.155 20.0565C132.016 19.8998 131.816 19.7779 131.555 19.6909C131.349 19.6028 131.119 19.5519 130.864 19.5381ZM137.557 27.9943C138.497 28.5688 139.585 28.856 140.821 28.856C141.621 28.856 142.37 28.6994 143.066 28.386C143.386 28.2341 143.682 28.0584 143.954 27.8587V28.5949H148.419V9.7742C148.442 9.67483 148.442 9.60245 148.419 9.55963C148.384 9.49276 148.294 9.49588 148.154 9.55963H143.876V13.3852C143.161 14.0958 142.409 14.8558 141.654 15.6212C141.383 15.5839 141.105 15.5653 140.821 15.5653C139.567 15.5653 138.47 15.8525 137.53 16.427C136.608 16.984 135.877 17.7674 135.337 18.777C134.815 19.7866 134.554 20.9355 134.554 22.2237C134.554 22.8286 137.577 19.7596 140.801 16.4861L140.802 16.4859L140.802 16.4856C141.085 16.1983 141.369 15.9094 141.654 15.6212C142.146 15.689 142.617 15.8183 143.066 16.0092C143.355 16.1249 143.625 16.2617 143.876 16.4195V17.354C143.604 17.7672 143.33 18.1843 143.056 18.6018L143.038 18.6293C142.804 18.9854 142.569 19.3417 142.337 19.6962C142.125 19.6404 141.898 19.6126 141.656 19.6126C141.169 19.6126 140.733 19.7257 140.351 19.952C139.985 20.1783 139.689 20.4917 139.463 20.892C139.254 21.275 139.149 21.7102 139.149 22.1976C139.149 22.7024 139.254 23.155 139.463 23.5554C139.519 23.6591 139.582 23.757 139.652 23.8492C138.215 26.1355 137.271 27.8195 137.557 27.9943ZM139.652 23.8492C139.838 24.0976 140.071 24.3043 140.351 24.4693C140.733 24.6956 141.16 24.8088 141.63 24.8088C142.135 24.8088 142.57 24.7043 142.936 24.4954C143.301 24.2691 143.588 23.9645 143.797 23.5815C144.024 23.1811 144.137 22.7198 144.137 22.1976C144.137 21.6928 144.032 21.2489 143.823 20.8659C143.614 20.4829 143.319 20.1783 142.936 19.952C142.751 19.838 142.552 19.7527 142.337 19.6962C141.375 21.1619 140.439 22.596 139.652 23.8492ZM143.876 16.4195V13.3852C145.838 11.4326 147.512 9.85321 148.154 9.55963H148.419V9.7742C148.224 10.632 146.398 13.5007 144.293 16.7168C144.161 16.6106 144.021 16.5115 143.876 16.4195Z" fill="white"/>
</g>
</g>
<defs>
<filter id="filter0_d_4647_120902" x="0" y="0" width="151.436" height="39" filterUnits="userSpaceOnUse" color-interpolation-filters="sRGB">
<feFlood flood-opacity="0" result="BackgroundImageFix"/>
<feColorMatrix in="SourceAlpha" type="matrix" values="0 0 0 0 0 0 0 0 0 0 0 0 0 0 0 0 0 0 127 0" result="hardAlpha"/>
<feOffset dy="1"/>
<feGaussianBlur stdDeviation="1.5"/>
<feComposite in2="hardAlpha" operator="out"/>
<feColorMatrix type="matrix" values="0 0 0 0 0.156863 0 0 0 0 0.156863 0 0 0 0 0.156863 0 0 0 0.15 0"/>
<feBlend mode="normal" in2="BackgroundImageFix" result="effect1_dropShadow_4647_120902"/>
<feBlend mode="normal" in="SourceGraphic" in2="effect1_dropShadow_4647_120902" result="shape"/>
</filter>
</defs>
</svg>
