<svg width="484" height="471" viewBox="0 0 484 471" fill="none" xmlns="http://www.w3.org/2000/svg">
<g opacity="0.4" filter="url(#filter0_ii_4647_121763)">
<path d="M203.424 201.859C203.424 196.52 207.114 191.889 212.318 190.697L505.319 123.578C518.466 120.567 531.001 130.555 531.001 144.042V432.633C531.001 447.043 521.003 459.524 506.941 462.67L231.994 524.179C217.34 527.458 203.424 516.311 203.424 501.294V201.859Z" fill="url(#paint0_linear_4647_121763)"/>
</g>
<g opacity="0.4" filter="url(#filter1_ii_4647_121763)">
<path d="M0.427979 96.3328C0.427979 84.3862 13.5293 77.0677 23.702 83.3318L197.976 190.646C201.361 192.73 203.423 196.421 203.423 200.397V489.051C203.423 507.301 183.494 518.557 167.864 509.134L21.6957 421.01C8.49705 413.053 0.427979 398.766 0.427979 383.354V96.3328Z" fill="url(#paint1_linear_4647_121763)"/>
</g>
<g opacity="0.3" filter="url(#filter2_i_4647_121763)">
<path fill-rule="evenodd" clip-rule="evenodd" d="M76.1445 202.164C79.2575 200.607 84.3076 205.965 84.3076 210.826L84.3076 352.033C84.3076 355.111 82.1309 356.386 79.4459 354.883L62.9216 345.629C60.2366 344.125 58.06 340.411 58.06 337.334L58.06 254.741C58.06 253.769 57.05 252.698 56.4274 253.009L45.818 258.316C43.847 259.302 40.7711 257.442 38.9478 254.162L27.7266 233.976C25.9033 230.695 26.023 227.237 27.9939 226.251L76.1445 202.164Z" fill="url(#paint2_linear_4647_121763)"/>
<path fill-rule="evenodd" clip-rule="evenodd" d="M121.718 376.587C118.605 378.145 113.555 372.786 113.555 367.926L113.555 226.718C113.555 223.641 115.732 222.365 118.417 223.869L134.941 233.123C137.626 234.627 139.803 238.34 139.803 241.418L139.803 324.01C139.803 324.982 140.813 326.054 141.435 325.743L152.045 320.435C154.016 319.449 157.091 321.309 158.915 324.589L170.136 344.776C171.959 348.056 171.84 351.514 169.869 352.5L121.718 376.587Z" fill="url(#paint3_linear_4647_121763)"/>
</g>
<g opacity="0.4" filter="url(#filter3_i_4647_121763)">
<path d="M37.4241 61.3981C24.0101 64.3414 20.9979 82.1162 32.6934 89.3144L196.751 190.288C199.3 191.857 202.363 192.365 205.282 191.704L498.63 125.273C508.845 122.96 510.851 109.281 501.73 104.132L325.05 4.404C320.026 1.56797 314.133 0.683631 308.497 1.92014L37.4241 61.3981Z" fill="url(#paint4_linear_4647_121763)"/>
</g>
<circle cx="204.642" cy="194.669" r="6" fill="#E3F7FE"/>
<path d="M11.6248 81.8303C19.3486 79.8381 22.7436 83.3214 32.2918 88.7562C27.0525 84.0441 25.5566 80.6492 26.0011 74.0334C27.4682 67.8272 29.451 65.2262 35.7977 61.805C10.0325 69.4391 1.11105 78.3873 0.427979 94.9442C1.77998 88.9989 3.9969 84.669 11.6248 81.8303Z" fill="#DAF4FD"/>

<defs>
<filter id="filter0_ii_4647_121763" x="203.424" y="107.771" width="346.63" height="424.618" filterUnits="userSpaceOnUse" color-interpolation-filters="sRGB">
<feFlood flood-opacity="0" result="BackgroundImageFix"/>
<feBlend mode="normal" in="SourceGraphic" in2="BackgroundImageFix" result="shape"/>
<feColorMatrix in="SourceAlpha" type="matrix" values="0 0 0 0 0 0 0 0 0 0 0 0 0 0 0 0 0 0 127 0" result="hardAlpha"/>
<feOffset dx="20.9938" dy="-15.2682"/>
<feGaussianBlur stdDeviation="9.52684"/>
<feComposite in2="hardAlpha" operator="arithmetic" k2="-1" k3="1"/>
<feColorMatrix type="matrix" values="0 0 0 0 1 0 0 0 0 1 0 0 0 0 1 0 0 0 0.85 0"/>
<feBlend mode="normal" in2="shape" result="effect1_innerShadow_4647_121763"/>
<feColorMatrix in="SourceAlpha" type="matrix" values="0 0 0 0 0 0 0 0 0 0 0 0 0 0 0 0 0 0 127 0" result="hardAlpha"/>
<feOffset dy="20.9938"/>
<feGaussianBlur stdDeviation="3.81706"/>
<feComposite in2="hardAlpha" operator="arithmetic" k2="-1" k3="1"/>
<feColorMatrix type="matrix" values="0 0 0 0 1 0 0 0 0 1 0 0 0 0 1 0 0 0 0.51 0"/>
<feBlend mode="normal" in2="effect1_innerShadow_4647_121763" result="effect2_innerShadow_4647_121763"/>
</filter>
<filter id="filter1_ii_4647_121763" x="-5.29761" y="73.4063" width="208.72" height="452.491" filterUnits="userSpaceOnUse" color-interpolation-filters="sRGB">
<feFlood flood-opacity="0" result="BackgroundImageFix"/>
<feBlend mode="normal" in="SourceGraphic" in2="BackgroundImageFix" result="shape"/>
<feColorMatrix in="SourceAlpha" type="matrix" values="0 0 0 0 0 0 0 0 0 0 0 0 0 0 0 0 0 0 127 0" result="hardAlpha"/>
<feOffset dx="-5.72559" dy="13.3597"/>
<feGaussianBlur stdDeviation="9.52684"/>
<feComposite in2="hardAlpha" operator="arithmetic" k2="-1" k3="1"/>
<feColorMatrix type="matrix" values="0 0 0 0 1 0 0 0 0 1 0 0 0 0 1 0 0 0 0.85 0"/>
<feBlend mode="normal" in2="shape" result="effect1_innerShadow_4647_121763"/>
<feColorMatrix in="SourceAlpha" type="matrix" values="0 0 0 0 0 0 0 0 0 0 0 0 0 0 0 0 0 0 127 0" result="hardAlpha"/>
<feOffset dy="-24.8109"/>
<feGaussianBlur stdDeviation="3.81706"/>
<feComposite in2="hardAlpha" operator="arithmetic" k2="-1" k3="1"/>
<feColorMatrix type="matrix" values="0 0 0 0 1 0 0 0 0 1 0 0 0 0 1 0 0 0 0.47 0"/>
<feBlend mode="normal" in2="effect1_innerShadow_4647_121763" result="effect2_innerShadow_4647_121763"/>
</filter>
<filter id="filter2_i_4647_121763" x="26.4337" y="201.889" width="144.995" height="174.973" filterUnits="userSpaceOnUse" color-interpolation-filters="sRGB">
<feFlood flood-opacity="0" result="BackgroundImageFix"/>
<feBlend mode="normal" in="SourceGraphic" in2="BackgroundImageFix" result="shape"/>
<feColorMatrix in="SourceAlpha" type="matrix" values="0 0 0 0 0 0 0 0 0 0 0 0 0 0 0 0 0 0 127 0" result="hardAlpha"/>
<feOffset dx="1.11442" dy="1.11442"/>
<feComposite in2="hardAlpha" operator="arithmetic" k2="-1" k3="1"/>
<feColorMatrix type="matrix" values="0 0 0 0 1 0 0 0 0 1 0 0 0 0 1 0 0 0 1 0"/>
<feBlend mode="normal" in2="shape" result="effect1_innerShadow_4647_121763"/>
</filter>
<filter id="filter3_i_4647_121763" x="21.0238" y="-14.7472" width="486.533" height="206.734" filterUnits="userSpaceOnUse" color-interpolation-filters="sRGB">
<feFlood flood-opacity="0" result="BackgroundImageFix"/>
<feBlend mode="normal" in="SourceGraphic" in2="BackgroundImageFix" result="shape"/>
<feColorMatrix in="SourceAlpha" type="matrix" values="0 0 0 0 0 0 0 0 0 0 0 0 0 0 0 0 0 0 127 0" result="hardAlpha"/>
<feOffset dx="-4.397" dy="-16.1223"/>
<feGaussianBlur stdDeviation="9.52684"/>
<feComposite in2="hardAlpha" operator="arithmetic" k2="-1" k3="1"/>
<feColorMatrix type="matrix" values="0 0 0 0 1 0 0 0 0 1 0 0 0 0 1 0 0 0 0.64 0"/>
<feBlend mode="normal" in2="shape" result="effect1_innerShadow_4647_121763"/>
</filter>
<filter id="filter4_f_4647_121763" x="297.08" y="197.914" width="161.288" height="248.332" filterUnits="userSpaceOnUse" color-interpolation-filters="sRGB">
<feFlood flood-opacity="0" result="BackgroundImageFix"/>
<feBlend mode="normal" in="SourceGraphic" in2="BackgroundImageFix" result="shape"/>
<feGaussianBlur stdDeviation="0.6148" result="effect1_foregroundBlur_4647_121763"/>
</filter>
<filter id="filter5_f_4647_121763" x="297.08" y="197.914" width="161.288" height="248.332" filterUnits="userSpaceOnUse" color-interpolation-filters="sRGB">
<feFlood flood-opacity="0" result="BackgroundImageFix"/>
<feBlend mode="normal" in="SourceGraphic" in2="BackgroundImageFix" result="shape"/>
<feGaussianBlur stdDeviation="0.6148" result="effect1_foregroundBlur_4647_121763"/>
</filter>
<linearGradient id="paint0_linear_4647_121763" x1="467.977" y1="192.002" x2="233.47" y2="531.304" gradientUnits="userSpaceOnUse">
<stop stop-color="white" stop-opacity="0.31"/>
<stop offset="1" stop-color="#C6F5FF" stop-opacity="0.86"/>
</linearGradient>
<linearGradient id="paint1_linear_4647_121763" x1="164.368" y1="151.639" x2="-109.448" y2="370.994" gradientUnits="userSpaceOnUse">
<stop stop-color="white" stop-opacity="0.31"/>
<stop offset="1" stop-color="#C6F5FF" stop-opacity="0.86"/>
</linearGradient>
<linearGradient id="paint2_linear_4647_121763" x1="84.3076" y1="277.843" x2="24.4252" y2="277.843" gradientUnits="userSpaceOnUse">
<stop stop-color="#F1FFFD"/>
<stop offset="1" stop-color="#F1FFFD" stop-opacity="0.4"/>
</linearGradient>
<linearGradient id="paint3_linear_4647_121763" x1="113.555" y1="300.909" x2="173.437" y2="300.909" gradientUnits="userSpaceOnUse">
<stop stop-color="#F1FFFD"/>
<stop offset="1" stop-color="#F1FFFD" stop-opacity="0.4"/>
</linearGradient>
<linearGradient id="paint4_linear_4647_121763" x1="240.337" y1="-8.4817e-07" x2="180.219" y2="337.81" gradientUnits="userSpaceOnUse">
<stop stop-color="#F1FDFF" stop-opacity="0.31"/>
<stop offset="1" stop-color="#F9FEFF"/>
</linearGradient>
<radialGradient id="paint5_radial_4647_121763" cx="0" cy="0" r="1" gradientUnits="userSpaceOnUse" gradientTransform="translate(387.65 205.564) rotate(55.1078) scale(108.746 86.602)">
<stop stop-color="white" stop-opacity="0.6"/>
<stop offset="1" stop-color="white" stop-opacity="0"/>
</radialGradient>
<radialGradient id="paint6_radial_4647_121763" cx="0" cy="0" r="1" gradientUnits="userSpaceOnUse" gradientTransform="translate(387.65 205.564) rotate(55.1078) scale(108.746 86.602)">
<stop stop-color="white" stop-opacity="0.6"/>
<stop offset="1" stop-color="white" stop-opacity="0"/>
</radialGradient>
</defs>
</svg>
