<svg width="450" height="415" viewBox="0 0 450 415" fill="none" xmlns="http://www.w3.org/2000/svg">
<g opacity="0.4" filter="url(#filter0_ii_4647_121998)">
<path d="M180.018 176.517C180.007 171.83 183.247 167.762 187.818 166.723L443.658 108.578C455.122 105.972 466.05 114.655 466.102 126.411L467.229 378.517C467.285 391.172 458.524 402.161 446.174 404.923L205.597 458.744C192.79 461.609 180.622 451.884 180.594 438.761L180.018 176.517Z" fill="url(#paint0_linear_4647_121998)"/>
</g>
<g opacity="0.4" filter="url(#filter1_ii_4647_121998)">
<path d="M3 85.2158C3 74.7798 14.4282 68.3721 23.3318 73.8158L175.855 167.069C178.833 168.89 180.649 172.129 180.649 175.619V428.989C180.649 444.96 163.209 454.811 149.531 446.564L21.6123 369.444C10.0616 362.48 3 349.977 3 336.489V85.2158Z" fill="url(#paint1_linear_4647_121998)"/>
</g>
<g opacity="0.3" filter="url(#filter2_i_4647_121998)">
<path fill-rule="evenodd" clip-rule="evenodd" d="M69.2617 176.922C71.986 175.559 76.4055 180.249 76.4055 184.502L76.4055 308.079C76.4055 310.772 74.5007 311.889 72.1509 310.573L57.6898 302.474C55.34 301.158 53.4352 297.908 53.4352 295.215L53.4352 222.935C53.4352 222.084 52.5513 221.146 52.0064 221.419L42.7217 226.063C40.9968 226.926 38.305 225.299 36.7093 222.428L26.8891 204.762C25.2935 201.891 25.3982 198.865 27.1231 198.002L69.2617 176.922Z" fill="url(#paint2_linear_4647_121998)"/>
<path fill-rule="evenodd" clip-rule="evenodd" d="M109.145 329.567C106.421 330.93 102.001 326.241 102.001 321.987L102.001 198.411C102.001 195.718 103.906 194.601 106.256 195.917L120.717 204.016C123.067 205.332 124.972 208.582 124.972 211.275L124.972 283.555C124.972 284.406 125.856 285.343 126.401 285.071L135.685 280.426C137.41 279.563 140.102 281.191 141.698 284.061L151.518 301.728C153.114 304.598 153.009 307.625 151.284 308.488L109.145 329.567Z" fill="url(#paint3_linear_4647_121998)"/>
</g>
<g opacity="0.4" filter="url(#filter3_i_4647_121998)">
<path d="M32.7965 53.2307C20.9858 55.7712 18.3424 71.4359 28.6655 77.7115L174.826 166.564C177.048 167.915 179.709 168.35 182.245 167.775L438.997 109.632C447.937 107.607 449.692 95.6363 441.71 91.1307L287.048 3.83034C282.677 1.36273 277.552 0.582985 272.645 1.63865L32.7965 53.2307Z" fill="url(#paint4_linear_4647_121998)"/>
</g>
<path d="M464.218 125.075C462.216 108.069 457.065 99.6379 440 90C443.72 92.2005 446.577 93.9431 446.681 100.021C445.989 105.317 444.176 106.702 440 109.208C442.505 108.373 448.139 107.077 455.032 110.878C463.122 115.338 464.008 123.405 464.218 125.075Z" fill="#D6F2FD"/>
<circle cx="181.715" cy="170.363" r="6.68094" fill="#D7F3FD"/>
<path d="M13 72.5C19.7594 70.7566 19.644 72.2438 28 77C23.4149 72.8762 24.9911 70.5795 25.3801 64.7896C26.664 59.3583 25.9458 56.4941 31.5 53.5C8.95183 60.1809 3.59778 68.5999 3 83.0895C4.18319 77.8866 6.32448 74.9843 13 72.5Z" fill="#CCF0FC"/>
<g filter="url(#filter4_f_4647_121998)">
<mask id="path-10-inside-1_4647_121998" fill="white">
<path fill-rule="evenodd" clip-rule="evenodd" d="M402.681 265.594L402.675 265.595C402.678 266.457 402.629 267.336 402.526 268.229L395.563 328.842C394.813 335.371 391.277 341.818 385.939 346.394L342.908 383.274C335.859 389.316 326.845 391.109 319.95 387.841L277.862 367.892C272.641 365.417 269.297 360.337 268.759 354.065L263.766 295.83C263.692 294.972 263.672 294.107 263.704 293.238L263.7 293.238C264.276 258.509 283.136 241.1 299.435 226.055C301.07 224.547 302.678 223.062 304.24 221.586C301.251 228.032 298.781 236.713 305.511 235.374C318.273 232.836 330.174 194.521 334.367 174.279C362.734 191.101 403.276 229.663 402.681 265.594ZM377.338 278.186L376.631 288.946C379.104 288.013 381.566 287.046 384.014 286.044C385.89 289.058 386.931 292.787 386.862 296.998C386.674 308.3 378.551 319.29 367.997 323.372L361.911 336.283L362.666 324.789C350.714 326.548 341.369 318.356 341.574 306.007C341.611 303.763 341.961 301.531 342.581 299.363C352.317 297.067 361.919 294.226 371.355 290.878L377.338 278.186ZM279.816 318.29C279.886 314.08 281.057 309.913 283.044 306.131C296.415 306.302 310.202 305.285 324.312 303C324.863 304.934 325.141 307.039 325.104 309.282C324.892 322.031 314.583 334.383 302.077 336.871C289.571 339.358 279.604 331.04 279.816 318.29Z"/>
</mask>
</g>
<defs>
<filter id="filter0_ii_4647_121998" x="180.018" y="94.7513" width="303.886" height="371.177" filterUnits="userSpaceOnUse" color-interpolation-filters="sRGB">
<feFlood flood-opacity="0" result="BackgroundImageFix"/>
<feBlend mode="normal" in="SourceGraphic" in2="BackgroundImageFix" result="shape"/>
<feColorMatrix in="SourceAlpha" type="matrix" values="0 0 0 0 0 0 0 0 0 0 0 0 0 0 0 0 0 0 127 0" result="hardAlpha"/>
<feOffset dx="18.3726" dy="-13.3619"/>
<feGaussianBlur stdDeviation="8.33733"/>
<feComposite in2="hardAlpha" operator="arithmetic" k2="-1" k3="1"/>
<feColorMatrix type="matrix" values="0 0 0 0 1 0 0 0 0 1 0 0 0 0 1 0 0 0 0.85 0"/>
<feBlend mode="normal" in2="shape" result="effect1_innerShadow_4647_121998"/>
<feColorMatrix in="SourceAlpha" type="matrix" values="0 0 0 0 0 0 0 0 0 0 0 0 0 0 0 0 0 0 127 0" result="hardAlpha"/>
<feOffset dy="18.3726"/>
<feGaussianBlur stdDeviation="3.34047"/>
<feComposite in2="hardAlpha" operator="arithmetic" k2="-1" k3="1"/>
<feColorMatrix type="matrix" values="0 0 0 0 1 0 0 0 0 1 0 0 0 0 1 0 0 0 0.51 0"/>
<feBlend mode="normal" in2="effect1_innerShadow_4647_121998" result="effect2_innerShadow_4647_121998"/>
</filter>
<filter id="filter1_ii_4647_121998" x="-2.01071" y="65.152" width="182.66" height="396.083" filterUnits="userSpaceOnUse" color-interpolation-filters="sRGB">
<feFlood flood-opacity="0" result="BackgroundImageFix"/>
<feBlend mode="normal" in="SourceGraphic" in2="BackgroundImageFix" result="shape"/>
<feColorMatrix in="SourceAlpha" type="matrix" values="0 0 0 0 0 0 0 0 0 0 0 0 0 0 0 0 0 0 127 0" result="hardAlpha"/>
<feOffset dx="-5.01071" dy="11.6916"/>
<feGaussianBlur stdDeviation="8.33733"/>
<feComposite in2="hardAlpha" operator="arithmetic" k2="-1" k3="1"/>
<feColorMatrix type="matrix" values="0 0 0 0 1 0 0 0 0 1 0 0 0 0 1 0 0 0 0.85 0"/>
<feBlend mode="normal" in2="shape" result="effect1_innerShadow_4647_121998"/>
<feColorMatrix in="SourceAlpha" type="matrix" values="0 0 0 0 0 0 0 0 0 0 0 0 0 0 0 0 0 0 127 0" result="hardAlpha"/>
<feOffset dy="-21.7131"/>
<feGaussianBlur stdDeviation="3.34047"/>
<feComposite in2="hardAlpha" operator="arithmetic" k2="-1" k3="1"/>
<feColorMatrix type="matrix" values="0 0 0 0 1 0 0 0 0 1 0 0 0 0 1 0 0 0 0.47 0"/>
<feBlend mode="normal" in2="effect1_innerShadow_4647_121998" result="effect2_innerShadow_4647_121998"/>
</filter>
<filter id="filter2_i_4647_121998" x="25.7576" y="176.682" width="126.892" height="153.126" filterUnits="userSpaceOnUse" color-interpolation-filters="sRGB">
<feFlood flood-opacity="0" result="BackgroundImageFix"/>
<feBlend mode="normal" in="SourceGraphic" in2="BackgroundImageFix" result="shape"/>
<feColorMatrix in="SourceAlpha" type="matrix" values="0 0 0 0 0 0 0 0 0 0 0 0 0 0 0 0 0 0 127 0" result="hardAlpha"/>
<feOffset dx="0.975273" dy="0.975273"/>
<feComposite in2="hardAlpha" operator="arithmetic" k2="-1" k3="1"/>
<feColorMatrix type="matrix" values="0 0 0 0 1 0 0 0 0 1 0 0 0 0 1 0 0 0 1 0"/>
<feBlend mode="normal" in2="shape" result="effect1_innerShadow_4647_121998"/>
</filter>
<filter id="filter3_i_4647_121998" x="18.39" y="-12.9296" width="428.419" height="180.952" filterUnits="userSpaceOnUse" color-interpolation-filters="sRGB">
<feFlood flood-opacity="0" result="BackgroundImageFix"/>
<feBlend mode="normal" in="SourceGraphic" in2="BackgroundImageFix" result="shape"/>
<feColorMatrix in="SourceAlpha" type="matrix" values="0 0 0 0 0 0 0 0 0 0 0 0 0 0 0 0 0 0 127 0" result="hardAlpha"/>
<feOffset dx="-3.848" dy="-14.1093"/>
<feGaussianBlur stdDeviation="8.33733"/>
<feComposite in2="hardAlpha" operator="arithmetic" k2="-1" k3="1"/>
<feColorMatrix type="matrix" values="0 0 0 0 1 0 0 0 0 1 0 0 0 0 1 0 0 0 0.64 0"/>
<feBlend mode="normal" in2="shape" result="effect1_innerShadow_4647_121998"/>
</filter>
<filter id="filter4_f_4647_121998" x="262.613" y="173.202" width="141.15" height="217.325" filterUnits="userSpaceOnUse" color-interpolation-filters="sRGB">
<feFlood flood-opacity="0" result="BackgroundImageFix"/>
<feBlend mode="normal" in="SourceGraphic" in2="BackgroundImageFix" result="shape"/>
<feGaussianBlur stdDeviation="0.538037" result="effect1_foregroundBlur_4647_121998"/>
</filter>
<filter id="filter5_f_4647_121998" x="262.613" y="173.202" width="141.15" height="217.325" filterUnits="userSpaceOnUse" color-interpolation-filters="sRGB">
<feFlood flood-opacity="0" result="BackgroundImageFix"/>
<feBlend mode="normal" in="SourceGraphic" in2="BackgroundImageFix" result="shape"/>
<feGaussianBlur stdDeviation="0.538037" result="effect1_foregroundBlur_4647_121998"/>
</filter>
<linearGradient id="paint0_linear_4647_121998" x1="412.171" y1="168.029" x2="206.944" y2="464.966" gradientUnits="userSpaceOnUse">
<stop stop-color="white" stop-opacity="0.31"/>
<stop offset="1" stop-color="#C6F5FF" stop-opacity="0.86"/>
</linearGradient>
<linearGradient id="paint1_linear_4647_121998" x1="146.471" y1="132.706" x2="-93.157" y2="324.673" gradientUnits="userSpaceOnUse">
<stop stop-color="white" stop-opacity="0.31"/>
<stop offset="1" stop-color="#C6F5FF" stop-opacity="0.86"/>
</linearGradient>
<linearGradient id="paint2_linear_4647_121998" x1="76.4055" y1="243.152" x2="23.9999" y2="243.152" gradientUnits="userSpaceOnUse">
<stop stop-color="#F1FFFD"/>
<stop offset="1" stop-color="#F1FFFD" stop-opacity="0.4"/>
</linearGradient>
<linearGradient id="paint3_linear_4647_121998" x1="102.001" y1="263.338" x2="154.407" y2="263.338" gradientUnits="userSpaceOnUse">
<stop stop-color="#F1FFFD"/>
<stop offset="1" stop-color="#F1FFFD" stop-opacity="0.4"/>
</linearGradient>
<linearGradient id="paint4_linear_4647_121998" x1="212.955" y1="-5.76624e-06" x2="160.343" y2="295.632" gradientUnits="userSpaceOnUse">
<stop stop-color="#F1FDFF" stop-opacity="0.31"/>
<stop offset="1" stop-color="#F9FEFF"/>
</linearGradient>
<radialGradient id="paint5_radial_4647_121998" cx="0" cy="0" r="1" gradientUnits="userSpaceOnUse" gradientTransform="translate(341.875 179.897) rotate(55.1078) scale(95.1682 75.789)">
<stop stop-color="white" stop-opacity="0.6"/>
<stop offset="1" stop-color="white" stop-opacity="0"/>
</radialGradient>
<radialGradient id="paint6_radial_4647_121998" cx="0" cy="0" r="1" gradientUnits="userSpaceOnUse" gradientTransform="translate(341.875 179.897) rotate(55.1078) scale(95.1682 75.789)">
<stop stop-color="white" stop-opacity="0.6"/>
<stop offset="1" stop-color="white" stop-opacity="0"/>
</radialGradient>
</defs>
</svg>
