<svg width="450" height="415" viewBox="0 0 450 415" fill="none" xmlns="http://www.w3.org/2000/svg">
<g opacity="0.4" filter="url(#filter0_ii_4647_121998)">
<path d="M180.65 176.661C180.65 171.986 183.882 167.932 188.44 166.891L443.639 108.607C455.108 105.988 466.05 114.672 466.102 126.436L467.229 378.517C467.285 391.172 458.524 402.161 446.174 404.923L205.653 458.731C192.829 461.6 180.65 451.845 180.65 438.704V176.661Z" fill="url(#paint0_linear_4647_121998)"/>
</g>
<g opacity="0.4" filter="url(#filter1_ii_4647_121998)">
<path d="M3 84.1048C3 73.6927 14.3814 67.2813 23.2863 72.6772L175.821 165.104C178.819 166.92 180.649 170.17 180.649 173.675V427.989C180.649 443.96 163.209 453.811 149.531 445.564L21.6123 368.444C10.0616 361.48 3 348.977 3 335.49V84.1048Z" fill="url(#paint1_linear_4647_121998)"/>
</g>
<g opacity="0.3" filter="url(#filter2_i_4647_121998)">
<path fill-rule="evenodd" clip-rule="evenodd" d="M69.2618 176.922C71.9861 175.559 76.4056 180.249 76.4056 184.502L76.4056 308.079C76.4056 310.772 74.5008 311.889 72.151 310.573L57.6899 302.474C55.3402 301.158 53.4353 297.908 53.4353 295.215L53.4353 222.935C53.4353 222.084 52.5514 221.146 52.0066 221.419L42.7218 226.063C40.9969 226.926 38.3051 225.299 36.7094 222.428L26.8893 204.762C25.2936 201.891 25.3984 198.865 27.1232 198.002L69.2618 176.922Z" fill="url(#paint2_linear_4647_121998)"/>
<path fill-rule="evenodd" clip-rule="evenodd" d="M109.145 329.567C106.421 330.93 102.001 326.241 102.001 321.987L102.001 198.411C102.001 195.718 103.906 194.601 106.256 195.917L120.717 204.016C123.067 205.332 124.972 208.582 124.972 211.275L124.972 283.555C124.972 284.406 125.856 285.343 126.401 285.071L135.685 280.426C137.41 279.563 140.102 281.191 141.698 284.061L151.518 301.728C153.114 304.598 153.009 307.625 151.284 308.488L109.145 329.567Z" fill="url(#paint3_linear_4647_121998)"/>
</g>
<g opacity="0.4" filter="url(#filter3_i_4647_121998)">
<path d="M32.7965 53.2307C20.9858 55.7712 18.3424 71.4359 28.6655 77.7115L174.826 166.564C177.048 167.915 179.709 168.35 182.245 167.775L438.997 109.632C447.937 107.607 449.692 95.6363 441.71 91.1307L287.048 3.83034C282.677 1.36273 277.552 0.582985 272.645 1.63865L32.7965 53.2307Z" fill="url(#paint4_linear_4647_121998)"/>
</g>
<path d="M464.218 125.075C462.216 108.069 457.065 99.6379 440 90C443.72 92.2005 446.577 93.9431 446.681 100.021C445.989 105.317 444.176 106.702 440 109.208C442.505 108.373 448.139 107.077 455.032 110.878C463.122 115.338 464.008 123.405 464.218 125.075Z" fill="#D6F2FD"/>
<circle cx="181.715" cy="170.363" r="6.68094" fill="#DCF5FD"/>
<path d="M12.7988 71.613C19.5582 69.8696 22.5293 72.918 30.8853 77.6742C26.3002 73.5504 24.9911 70.5795 25.3801 64.7896C26.664 59.3583 28.3993 57.0821 33.9535 54.0881C11.4053 60.769 3.59778 68.5999 3 83.0895C4.18319 77.8866 6.12332 74.0973 12.7988 71.613Z" fill="#D8F3FD"/>
<path fill-rule="evenodd" clip-rule="evenodd" d="M402.681 265.594L402.675 265.595C402.678 266.457 402.629 267.336 402.526 268.229L395.562 328.842C394.812 335.371 391.277 341.818 385.939 346.394L342.908 383.274C335.859 389.316 326.845 391.109 319.95 387.841L277.862 367.892C272.641 365.417 269.296 360.337 268.759 354.065L263.766 295.83C263.692 294.972 263.672 294.107 263.703 293.238L263.7 293.238C264.276 258.509 283.136 241.1 299.435 226.055C301.07 224.547 302.678 223.062 304.24 221.586C301.251 228.032 298.781 236.713 305.511 235.374C318.273 232.836 330.174 194.521 334.367 174.279C362.734 191.101 403.276 229.663 402.681 265.594ZM377.338 278.184L376.631 288.943C379.104 288.01 381.565 287.042 384.014 286.04C385.89 289.055 386.931 292.783 386.861 296.995C386.674 308.297 378.551 319.286 367.998 323.369L361.911 336.281L362.666 324.786C350.714 326.545 341.369 318.353 341.574 306.003C341.611 303.759 341.961 301.527 342.581 299.359C352.317 297.063 361.919 294.222 371.355 290.874L377.338 278.184ZM279.816 318.289C279.886 314.078 281.057 309.911 283.045 306.128C296.415 306.299 310.202 305.282 324.311 302.997C324.863 304.931 325.141 307.037 325.104 309.281C324.892 322.03 314.583 334.382 302.077 336.87C289.571 339.357 279.604 331.039 279.816 318.289Z" fill="white" fill-opacity="0.32"/>
<g filter="url(#filter4_f_4647_121998)">
<mask id="path-10-inside-1_4647_121998" fill="white">
<path fill-rule="evenodd" clip-rule="evenodd" d="M402.681 265.594L402.675 265.595C402.678 266.457 402.629 267.336 402.526 268.229L395.562 328.842C394.812 335.371 391.277 341.818 385.939 346.394L342.908 383.274C335.859 389.316 326.845 391.109 319.95 387.841L277.862 367.892C272.641 365.417 269.296 360.337 268.759 354.065L263.766 295.83C263.692 294.972 263.672 294.107 263.703 293.238L263.7 293.238C264.276 258.509 283.136 241.1 299.435 226.055C301.07 224.547 302.678 223.062 304.24 221.586C301.251 228.032 298.781 236.713 305.511 235.374C318.273 232.836 330.174 194.521 334.367 174.279C362.734 191.101 403.276 229.663 402.681 265.594ZM377.338 278.186L376.631 288.946C379.104 288.013 381.565 287.046 384.014 286.044C385.89 289.058 386.931 292.787 386.861 296.998C386.674 308.3 378.551 319.29 367.997 323.372L361.911 336.283L362.666 324.789C350.714 326.548 341.369 318.356 341.574 306.007C341.611 303.763 341.961 301.531 342.581 299.363C352.317 297.067 361.919 294.226 371.355 290.878L377.338 278.186ZM279.816 318.29C279.886 314.08 281.057 309.913 283.044 306.131C296.415 306.302 310.202 305.285 324.312 303C324.863 304.934 325.141 307.039 325.104 309.282C324.892 322.031 314.583 334.383 302.077 336.871C289.571 339.358 279.604 331.04 279.816 318.29Z"/>
</mask>
<path d="M402.675 265.595L402.693 264.519L401.616 264.733L401.62 265.826L402.675 265.595ZM402.681 265.594L402.663 266.669L403.718 266.46L403.736 265.384L402.681 265.594ZM402.526 268.229L403.574 268.13L402.526 268.229ZM395.562 328.842L396.611 328.743L395.562 328.842ZM385.939 346.394L385.375 345.609L385.939 346.394ZM342.908 383.274L343.471 384.059L342.908 383.274ZM319.95 387.841L319.357 388.856L319.95 387.841ZM277.862 367.892L278.455 366.876L277.862 367.892ZM268.759 354.065L269.81 353.746L268.759 354.065ZM263.766 295.83L262.714 296.149L263.766 295.83ZM263.703 293.238L264.758 293.05L264.798 291.948L263.721 292.162L263.703 293.238ZM263.7 293.238L262.645 293.448L262.627 294.524L263.682 294.314L263.7 293.238ZM299.435 226.055L300.038 226.805L299.435 226.055ZM304.24 221.586L305.175 221.881L303.624 220.848L304.24 221.586ZM334.367 174.279L335.025 173.298L333.7 172.512L333.336 174.271L334.367 174.279ZM376.631 288.946L375.578 289.102L375.488 290.463L376.796 289.97L376.631 288.946ZM377.338 278.186L378.391 278.031L376.406 277.883L377.338 278.186ZM384.014 286.044L384.936 285.322L384.565 284.727L383.817 285.033L384.014 286.044ZM367.997 323.372L367.822 322.353L367.31 322.551L367.066 323.069L367.997 323.372ZM361.911 336.283L360.858 336.439L362.842 336.587L361.911 336.283ZM362.666 324.789L363.719 324.634L363.79 323.549L362.737 323.704L362.666 324.789ZM342.581 299.363L342.56 298.295L341.798 298.475L341.572 299.264L342.581 299.363ZM371.355 290.878L371.498 291.909L372.032 291.719L372.286 291.181L371.355 290.878ZM283.044 306.131L283.276 305.035L282.533 305.025L282.14 305.773L283.044 306.131ZM324.312 303L325.33 302.498L325.13 301.794L324.368 301.917L324.312 303ZM402.657 266.671L402.663 266.669L402.698 264.518L402.693 264.519L402.657 266.671ZM403.574 268.13C403.682 267.192 403.734 266.269 403.731 265.363L401.62 265.826C401.622 266.645 401.576 267.48 401.478 268.328L403.574 268.13ZM396.611 328.743L403.574 268.13L401.478 268.328L394.514 328.941L396.611 328.743ZM386.502 347.179C392.109 342.373 395.823 335.6 396.611 328.743L394.514 328.941C393.802 335.141 390.445 341.264 385.375 345.609L386.502 347.179ZM343.471 384.059L386.502 347.179L385.375 345.609L342.345 382.489L343.471 384.059ZM319.357 388.856C326.599 392.288 336.068 390.405 343.471 384.059L342.345 382.489C335.651 388.226 327.091 389.929 320.543 386.826L319.357 388.856ZM277.269 368.907L319.357 388.856L320.543 386.826L278.455 366.876L277.269 368.907ZM267.707 354.384C268.272 360.972 271.785 366.307 277.269 368.907L278.455 366.876C273.497 364.526 270.321 359.703 269.81 353.746L267.707 354.384ZM262.714 296.149L267.707 354.384L269.81 353.746L264.817 295.512L262.714 296.149ZM262.649 293.426C262.616 294.339 262.637 295.248 262.714 296.149L264.817 295.512C264.747 294.697 264.728 293.875 264.758 293.05L262.649 293.426ZM263.682 294.314L263.686 294.314L263.721 292.162L263.718 292.163L263.682 294.314ZM298.832 225.306C290.699 232.813 281.772 241.044 274.832 251.797C267.865 262.591 262.937 275.864 262.645 293.448L264.756 293.029C265.04 275.883 269.829 263.087 276.511 252.733C283.22 242.338 291.872 234.343 300.038 226.805L298.832 225.306ZM303.624 220.848C302.07 222.317 300.468 223.796 298.832 225.306L300.038 226.805C301.671 225.298 303.286 223.807 304.855 222.324L303.624 220.848ZM305.529 234.298C304.061 234.59 303.301 234.304 302.885 233.852C302.439 233.367 302.216 232.508 302.285 231.23C302.422 228.663 303.697 225.069 305.175 221.881L303.305 221.291C301.794 224.549 300.339 228.519 300.177 231.568C300.095 233.099 300.33 234.562 301.22 235.53C302.141 236.531 303.596 236.828 305.493 236.45L305.529 234.298ZM333.336 174.271C331.251 184.336 327.248 198.895 322.192 211.227C319.662 217.399 316.893 222.951 314.004 227.092C311.082 231.279 308.223 233.762 305.529 234.298L305.493 236.45C309.18 235.717 312.595 232.458 315.625 228.116C318.687 223.726 321.548 217.958 324.113 211.704C329.246 199.183 333.29 184.463 335.398 174.286L333.336 174.271ZM403.736 265.384C404.04 247.056 393.879 228.23 380.241 211.959C366.574 195.653 349.279 181.751 335.025 173.298L333.709 175.259C347.822 183.629 364.981 197.419 378.528 213.583C392.104 229.78 401.917 248.201 401.625 265.804L403.736 265.384ZM377.684 288.791L378.391 278.031L376.285 278.341L375.578 289.102L377.684 288.791ZM383.817 285.033C381.379 286.03 378.928 286.994 376.466 287.923L376.796 289.97C379.28 289.033 381.752 288.061 384.211 287.054L383.817 285.033ZM387.917 296.789C387.99 292.382 386.9 288.479 384.936 285.322L383.092 286.765C384.88 289.638 385.873 293.191 385.806 297.208L387.917 296.789ZM368.172 324.392C379.219 320.119 387.721 308.618 387.917 296.789L385.806 297.208C385.627 307.982 377.884 318.461 367.822 322.353L368.172 324.392ZM362.842 336.587L368.929 323.676L367.066 323.069L360.979 335.98L362.842 336.587ZM361.613 324.945L360.858 336.439L362.964 336.128L363.719 324.634L361.613 324.945ZM340.518 306.217C340.304 319.142 350.084 327.716 362.594 325.875L362.737 323.704C351.343 325.381 342.434 317.57 342.629 305.797L340.518 306.217ZM341.572 299.264C340.923 301.534 340.557 303.87 340.518 306.217L342.629 305.797C342.664 303.656 342.998 301.528 343.589 299.462L341.572 299.264ZM371.212 289.846C361.817 293.18 352.255 296.009 342.56 298.295L342.601 300.43C352.378 298.125 362.021 295.271 371.498 291.909L371.212 289.846ZM376.406 277.883L370.423 290.574L372.286 291.181L378.269 278.489L376.406 277.883ZM282.14 305.773C280.059 309.733 278.833 314.096 278.76 318.5L280.871 318.081C280.938 314.065 282.054 310.094 283.948 306.489L282.14 305.773ZM324.368 301.917C310.318 304.193 296.589 305.206 283.276 305.035L282.812 307.227C296.24 307.399 310.086 306.378 324.256 304.083L324.368 301.917ZM326.159 309.072C326.198 306.727 325.907 304.523 325.33 302.498L323.294 303.502C323.819 305.345 324.084 307.352 324.048 309.492L326.159 309.072ZM302.059 337.947C315.148 335.343 325.938 322.416 326.159 309.072L324.048 309.492C323.847 321.647 314.018 333.423 302.095 335.795L302.059 337.947ZM278.76 318.5C278.539 331.844 288.97 340.55 302.059 337.947L302.095 335.795C290.172 338.166 280.67 330.235 280.871 318.081L278.76 318.5Z" fill="url(#paint5_radial_4647_121998)" mask="url(#path-10-inside-1_4647_121998)"/>
</g>
<g filter="url(#filter5_f_4647_121998)">
<mask id="path-12-inside-2_4647_121998" fill="white">
<path fill-rule="evenodd" clip-rule="evenodd" d="M402.681 265.594L402.675 265.595C402.678 266.457 402.629 267.336 402.526 268.229L395.562 328.842C394.812 335.371 391.277 341.818 385.939 346.394L342.908 383.274C335.859 389.316 326.845 391.109 319.95 387.841L277.862 367.892C272.641 365.417 269.296 360.337 268.759 354.065L263.766 295.83C263.692 294.972 263.672 294.107 263.703 293.238L263.7 293.238C264.276 258.509 283.136 241.1 299.435 226.055C301.07 224.547 302.678 223.062 304.24 221.586C301.251 228.032 298.781 236.713 305.511 235.374C318.273 232.836 330.174 194.521 334.367 174.279C362.734 191.101 403.276 229.663 402.681 265.594ZM377.338 278.184L376.631 288.943C379.104 288.01 381.565 287.042 384.014 286.04C385.89 289.055 386.931 292.783 386.861 296.995C386.674 308.297 378.551 319.286 367.998 323.369L361.911 336.281L362.666 324.786C350.714 326.545 341.369 318.353 341.574 306.003C341.611 303.759 341.961 301.527 342.581 299.359C352.317 297.063 361.919 294.222 371.355 290.874L377.338 278.184ZM279.816 318.289C279.886 314.078 281.057 309.911 283.045 306.128C296.415 306.299 310.202 305.282 324.311 302.997C324.863 304.931 325.141 307.037 325.104 309.281C324.892 322.03 314.583 334.382 302.077 336.87C289.571 339.357 279.604 331.039 279.816 318.289Z"/>
</mask>
<path d="M402.675 265.595L402.693 264.519L401.616 264.733L401.62 265.826L402.675 265.595ZM402.681 265.594L402.663 266.669L403.718 266.46L403.736 265.384L402.681 265.594ZM402.526 268.229L403.574 268.13L402.526 268.229ZM395.562 328.842L396.611 328.743L395.562 328.842ZM385.939 346.394L385.375 345.609L385.939 346.394ZM342.908 383.274L343.471 384.059L342.908 383.274ZM319.95 387.841L319.357 388.856L319.95 387.841ZM277.862 367.892L278.455 366.876L277.862 367.892ZM268.759 354.065L269.81 353.746L268.759 354.065ZM263.766 295.83L262.714 296.149L263.766 295.83ZM263.703 293.238L264.758 293.05L264.798 291.948L263.721 292.162L263.703 293.238ZM263.7 293.238L262.645 293.448L262.627 294.524L263.682 294.314L263.7 293.238ZM299.435 226.055L300.038 226.805L299.435 226.055ZM304.24 221.586L305.175 221.881L303.624 220.848L304.24 221.586ZM334.367 174.279L335.025 173.298L333.7 172.512L333.336 174.271L334.367 174.279ZM376.631 288.943L375.578 289.098L375.489 290.46L376.797 289.966L376.631 288.943ZM377.338 278.184L378.391 278.028L376.406 277.88L377.338 278.184ZM384.014 286.04L384.936 285.319L384.565 284.723L383.817 285.029L384.014 286.04ZM367.998 323.369L367.823 322.349L367.311 322.547L367.066 323.066L367.998 323.369ZM361.911 336.281L360.858 336.436L362.842 336.584L361.911 336.281ZM362.666 324.786L363.719 324.631L363.79 323.546L362.737 323.701L362.666 324.786ZM342.581 299.359L342.56 298.292L341.798 298.472L341.572 299.26L342.581 299.359ZM371.355 290.874L371.498 291.906L372.033 291.716L372.287 291.177L371.355 290.874ZM283.045 306.128L283.277 305.031L282.534 305.022L282.141 305.77L283.045 306.128ZM324.311 302.997L325.33 302.494L325.129 301.79L324.367 301.914L324.311 302.997ZM402.657 266.671L402.663 266.669L402.698 264.518L402.693 264.519L402.657 266.671ZM403.574 268.13C403.682 267.192 403.734 266.269 403.731 265.363L401.62 265.826C401.622 266.645 401.576 267.48 401.478 268.328L403.574 268.13ZM396.611 328.743L403.574 268.13L401.478 268.328L394.514 328.941L396.611 328.743ZM386.502 347.179C392.109 342.373 395.823 335.6 396.611 328.743L394.514 328.941C393.802 335.141 390.445 341.264 385.375 345.609L386.502 347.179ZM343.471 384.059L386.502 347.179L385.375 345.609L342.345 382.489L343.471 384.059ZM319.357 388.856C326.599 392.288 336.068 390.405 343.471 384.059L342.345 382.489C335.651 388.226 327.091 389.929 320.543 386.826L319.357 388.856ZM277.269 368.907L319.357 388.856L320.543 386.826L278.455 366.876L277.269 368.907ZM267.707 354.384C268.272 360.972 271.785 366.307 277.269 368.907L278.455 366.876C273.497 364.526 270.321 359.703 269.81 353.746L267.707 354.384ZM262.714 296.149L267.707 354.384L269.81 353.746L264.817 295.512L262.714 296.149ZM262.649 293.426C262.616 294.339 262.637 295.248 262.714 296.149L264.817 295.512C264.747 294.697 264.728 293.875 264.758 293.05L262.649 293.426ZM263.682 294.314L263.686 294.314L263.721 292.162L263.718 292.163L263.682 294.314ZM298.832 225.306C290.699 232.813 281.772 241.044 274.832 251.797C267.865 262.591 262.937 275.864 262.645 293.448L264.756 293.029C265.04 275.883 269.829 263.087 276.511 252.733C283.22 242.338 291.872 234.343 300.038 226.805L298.832 225.306ZM303.624 220.848C302.07 222.317 300.468 223.796 298.832 225.306L300.038 226.805C301.671 225.298 303.286 223.807 304.855 222.324L303.624 220.848ZM305.529 234.298C304.061 234.59 303.301 234.304 302.885 233.852C302.439 233.367 302.216 232.508 302.285 231.23C302.422 228.663 303.697 225.069 305.175 221.881L303.305 221.291C301.794 224.549 300.339 228.519 300.177 231.568C300.095 233.099 300.33 234.562 301.22 235.53C302.141 236.531 303.596 236.828 305.493 236.45L305.529 234.298ZM333.336 174.271C331.251 184.336 327.248 198.895 322.192 211.227C319.662 217.399 316.893 222.951 314.004 227.092C311.082 231.279 308.223 233.762 305.529 234.298L305.493 236.45C309.18 235.717 312.595 232.458 315.625 228.116C318.687 223.726 321.548 217.958 324.113 211.704C329.246 199.183 333.29 184.463 335.398 174.286L333.336 174.271ZM403.736 265.384C404.04 247.056 393.879 228.23 380.241 211.959C366.574 195.653 349.279 181.751 335.025 173.298L333.709 175.259C347.822 183.629 364.981 197.419 378.528 213.583C392.104 229.78 401.917 248.201 401.625 265.804L403.736 265.384ZM377.684 288.788L378.391 278.028L376.285 278.339L375.578 289.098L377.684 288.788ZM383.817 285.029C381.379 286.027 378.928 286.991 376.466 287.92L376.797 289.966C379.28 289.029 381.752 288.057 384.211 287.051L383.817 285.029ZM387.917 296.785C387.99 292.379 386.9 288.475 384.936 285.319L383.092 286.761C384.88 289.635 385.873 293.188 385.806 297.205L387.917 296.785ZM368.173 324.388C379.219 320.115 387.721 308.615 387.917 296.785L385.806 297.205C385.627 307.979 377.884 318.457 367.823 322.349L368.173 324.388ZM362.842 336.584L368.929 323.672L367.066 323.066L360.979 335.978L362.842 336.584ZM361.613 324.941L360.858 336.436L362.964 336.126L363.719 324.631L361.613 324.941ZM340.518 306.213C340.304 319.139 350.084 327.712 362.594 325.871L362.737 323.701C351.343 325.378 342.434 317.567 342.629 305.794L340.518 306.213ZM341.572 299.26C340.923 301.53 340.557 303.866 340.518 306.213L342.629 305.794C342.664 303.652 342.998 301.524 343.589 299.459L341.572 299.26ZM371.212 289.843C361.817 293.176 352.255 296.005 342.56 298.292L342.601 300.427C352.379 298.121 362.022 295.268 371.498 291.906L371.212 289.843ZM376.406 277.88L370.424 290.571L372.287 291.177L378.269 278.487L376.406 277.88ZM282.141 305.77C280.059 309.73 278.833 314.094 278.76 318.499L280.871 318.079C280.938 314.063 282.055 310.091 283.95 306.485L282.141 305.77ZM324.367 301.914C310.318 304.189 296.59 305.202 283.277 305.031L282.813 307.224C296.241 307.396 310.086 306.374 324.255 304.079L324.367 301.914ZM326.159 309.071C326.198 306.725 325.907 304.52 325.33 302.494L323.293 303.499C323.819 305.342 324.084 307.35 324.048 309.491L326.159 309.071ZM302.059 337.946C315.148 335.342 325.938 322.415 326.159 309.071L324.048 309.491C323.847 321.646 314.018 333.422 302.095 335.794L302.059 337.946ZM278.76 318.499C278.539 331.843 288.97 340.549 302.059 337.946L302.095 335.794C290.172 338.165 280.67 330.234 280.871 318.079L278.76 318.499Z" fill="url(#paint6_radial_4647_121998)" mask="url(#path-12-inside-2_4647_121998)"/>
</g>
<defs>
<filter id="filter0_ii_4647_121998" x="180.65" y="94.7761" width="303.254" height="371.14" filterUnits="userSpaceOnUse" color-interpolation-filters="sRGB">
<feFlood flood-opacity="0" result="BackgroundImageFix"/>
<feBlend mode="normal" in="SourceGraphic" in2="BackgroundImageFix" result="shape"/>
<feColorMatrix in="SourceAlpha" type="matrix" values="0 0 0 0 0 0 0 0 0 0 0 0 0 0 0 0 0 0 127 0" result="hardAlpha"/>
<feOffset dx="18.3726" dy="-13.3619"/>
<feGaussianBlur stdDeviation="8.33733"/>
<feComposite in2="hardAlpha" operator="arithmetic" k2="-1" k3="1"/>
<feColorMatrix type="matrix" values="0 0 0 0 1 0 0 0 0 1 0 0 0 0 1 0 0 0 0.85 0"/>
<feBlend mode="normal" in2="shape" result="effect1_innerShadow_4647_121998"/>
<feColorMatrix in="SourceAlpha" type="matrix" values="0 0 0 0 0 0 0 0 0 0 0 0 0 0 0 0 0 0 127 0" result="hardAlpha"/>
<feOffset dy="18.3726"/>
<feGaussianBlur stdDeviation="3.34047"/>
<feComposite in2="hardAlpha" operator="arithmetic" k2="-1" k3="1"/>
<feColorMatrix type="matrix" values="0 0 0 0 1 0 0 0 0 1 0 0 0 0 1 0 0 0 0.51 0"/>
<feBlend mode="normal" in2="effect1_innerShadow_4647_121998" result="effect2_innerShadow_4647_121998"/>
</filter>
<filter id="filter1_ii_4647_121998" x="-2.01071" y="64.0412" width="182.66" height="396.193" filterUnits="userSpaceOnUse" color-interpolation-filters="sRGB">
<feFlood flood-opacity="0" result="BackgroundImageFix"/>
<feBlend mode="normal" in="SourceGraphic" in2="BackgroundImageFix" result="shape"/>
<feColorMatrix in="SourceAlpha" type="matrix" values="0 0 0 0 0 0 0 0 0 0 0 0 0 0 0 0 0 0 127 0" result="hardAlpha"/>
<feOffset dx="-5.01071" dy="11.6916"/>
<feGaussianBlur stdDeviation="8.33733"/>
<feComposite in2="hardAlpha" operator="arithmetic" k2="-1" k3="1"/>
<feColorMatrix type="matrix" values="0 0 0 0 1 0 0 0 0 1 0 0 0 0 1 0 0 0 0.85 0"/>
<feBlend mode="normal" in2="shape" result="effect1_innerShadow_4647_121998"/>
<feColorMatrix in="SourceAlpha" type="matrix" values="0 0 0 0 0 0 0 0 0 0 0 0 0 0 0 0 0 0 127 0" result="hardAlpha"/>
<feOffset dy="-21.7131"/>
<feGaussianBlur stdDeviation="3.34047"/>
<feComposite in2="hardAlpha" operator="arithmetic" k2="-1" k3="1"/>
<feColorMatrix type="matrix" values="0 0 0 0 1 0 0 0 0 1 0 0 0 0 1 0 0 0 0.47 0"/>
<feBlend mode="normal" in2="effect1_innerShadow_4647_121998" result="effect2_innerShadow_4647_121998"/>
</filter>
<filter id="filter2_i_4647_121998" x="25.7578" y="176.682" width="126.891" height="153.126" filterUnits="userSpaceOnUse" color-interpolation-filters="sRGB">
<feFlood flood-opacity="0" result="BackgroundImageFix"/>
<feBlend mode="normal" in="SourceGraphic" in2="BackgroundImageFix" result="shape"/>
<feColorMatrix in="SourceAlpha" type="matrix" values="0 0 0 0 0 0 0 0 0 0 0 0 0 0 0 0 0 0 127 0" result="hardAlpha"/>
<feOffset dx="0.975273" dy="0.975273"/>
<feComposite in2="hardAlpha" operator="arithmetic" k2="-1" k3="1"/>
<feColorMatrix type="matrix" values="0 0 0 0 1 0 0 0 0 1 0 0 0 0 1 0 0 0 1 0"/>
<feBlend mode="normal" in2="shape" result="effect1_innerShadow_4647_121998"/>
</filter>
<filter id="filter3_i_4647_121998" x="18.39" y="-12.9296" width="428.419" height="180.952" filterUnits="userSpaceOnUse" color-interpolation-filters="sRGB">
<feFlood flood-opacity="0" result="BackgroundImageFix"/>
<feBlend mode="normal" in="SourceGraphic" in2="BackgroundImageFix" result="shape"/>
<feColorMatrix in="SourceAlpha" type="matrix" values="0 0 0 0 0 0 0 0 0 0 0 0 0 0 0 0 0 0 127 0" result="hardAlpha"/>
<feOffset dx="-3.848" dy="-14.1093"/>
<feGaussianBlur stdDeviation="8.33733"/>
<feComposite in2="hardAlpha" operator="arithmetic" k2="-1" k3="1"/>
<feColorMatrix type="matrix" values="0 0 0 0 1 0 0 0 0 1 0 0 0 0 1 0 0 0 0.64 0"/>
<feBlend mode="normal" in2="shape" result="effect1_innerShadow_4647_121998"/>
</filter>
<filter id="filter4_f_4647_121998" x="262.613" y="173.202" width="141.15" height="217.325" filterUnits="userSpaceOnUse" color-interpolation-filters="sRGB">
<feFlood flood-opacity="0" result="BackgroundImageFix"/>
<feBlend mode="normal" in="SourceGraphic" in2="BackgroundImageFix" result="shape"/>
<feGaussianBlur stdDeviation="0.538037" result="effect1_foregroundBlur_4647_121998"/>
</filter>
<filter id="filter5_f_4647_121998" x="262.613" y="173.202" width="141.15" height="217.325" filterUnits="userSpaceOnUse" color-interpolation-filters="sRGB">
<feFlood flood-opacity="0" result="BackgroundImageFix"/>
<feBlend mode="normal" in="SourceGraphic" in2="BackgroundImageFix" result="shape"/>
<feGaussianBlur stdDeviation="0.538037" result="effect1_foregroundBlur_4647_121998"/>
</filter>
<linearGradient id="paint0_linear_4647_121998" x1="412.171" y1="168.029" x2="206.944" y2="464.966" gradientUnits="userSpaceOnUse">
<stop stop-color="white" stop-opacity="0.31"/>
<stop offset="1" stop-color="#C6F5FF" stop-opacity="0.86"/>
</linearGradient>
<linearGradient id="paint1_linear_4647_121998" x1="146.471" y1="132.706" x2="-93.157" y2="324.673" gradientUnits="userSpaceOnUse">
<stop stop-color="white" stop-opacity="0.31"/>
<stop offset="1" stop-color="#C6F5FF" stop-opacity="0.86"/>
</linearGradient>
<linearGradient id="paint2_linear_4647_121998" x1="76.4056" y1="243.152" x2="24.0001" y2="243.152" gradientUnits="userSpaceOnUse">
<stop stop-color="#F1FFFD"/>
<stop offset="1" stop-color="#F1FFFD" stop-opacity="0.4"/>
</linearGradient>
<linearGradient id="paint3_linear_4647_121998" x1="102.001" y1="263.338" x2="154.407" y2="263.338" gradientUnits="userSpaceOnUse">
<stop stop-color="#F1FFFD"/>
<stop offset="1" stop-color="#F1FFFD" stop-opacity="0.4"/>
</linearGradient>
<linearGradient id="paint4_linear_4647_121998" x1="212.955" y1="-5.76624e-06" x2="160.343" y2="295.632" gradientUnits="userSpaceOnUse">
<stop stop-color="#F1FDFF" stop-opacity="0.31"/>
<stop offset="1" stop-color="#F9FEFF"/>
</linearGradient>
<radialGradient id="paint5_radial_4647_121998" cx="0" cy="0" r="1" gradientUnits="userSpaceOnUse" gradientTransform="translate(341.874 179.897) rotate(55.1078) scale(95.1682 75.789)">
<stop stop-color="white" stop-opacity="0.6"/>
<stop offset="1" stop-color="white" stop-opacity="0"/>
</radialGradient>
<radialGradient id="paint6_radial_4647_121998" cx="0" cy="0" r="1" gradientUnits="userSpaceOnUse" gradientTransform="translate(341.874 179.897) rotate(55.1078) scale(95.1682 75.789)">
<stop stop-color="white" stop-opacity="0.6"/>
<stop offset="1" stop-color="white" stop-opacity="0"/>
</radialGradient>
</defs>
</svg>
