<svg width="484" height="471" viewBox="0 0 484 471" fill="none" xmlns="http://www.w3.org/2000/svg">
<g opacity="0.4" filter="url(#filter0_ii_4647_121763)">
<path d="M203.424 201.859C203.424 196.52 207.114 191.889 212.318 190.697L505.319 123.578C518.466 120.567 531.001 130.555 531.001 144.042V432.633C531.001 447.043 521.003 459.524 506.941 462.67L231.994 524.179C217.34 527.458 203.424 516.311 203.424 501.294V201.859Z" fill="url(#paint0_linear_4647_121763)"/>
</g>
<g opacity="0.4" filter="url(#filter1_ii_4647_121763)">
<path d="M0.427979 96.3328C0.427979 84.3862 13.5293 77.0677 23.702 83.3318L197.976 190.646C201.361 192.73 203.423 196.421 203.423 200.397V489.051C203.423 507.301 183.494 518.557 167.864 509.134L21.6957 421.01C8.49705 413.053 0.427979 398.766 0.427979 383.354V96.3328Z" fill="url(#paint1_linear_4647_121763)"/>
</g>
<g opacity="0.3" filter="url(#filter2_i_4647_121763)">
<path fill-rule="evenodd" clip-rule="evenodd" d="M76.1445 202.164C79.2575 200.607 84.3076 205.965 84.3076 210.826L84.3076 352.033C84.3076 355.111 82.1309 356.386 79.4459 354.883L62.9216 345.629C60.2366 344.125 58.06 340.411 58.06 337.334L58.06 254.741C58.06 253.769 57.05 252.698 56.4274 253.009L45.818 258.316C43.847 259.302 40.7711 257.442 38.9478 254.162L27.7266 233.976C25.9033 230.695 26.023 227.237 27.9939 226.251L76.1445 202.164Z" fill="url(#paint2_linear_4647_121763)"/>
<path fill-rule="evenodd" clip-rule="evenodd" d="M121.718 376.587C118.605 378.145 113.555 372.786 113.555 367.926L113.555 226.718C113.555 223.641 115.732 222.365 118.417 223.869L134.941 233.123C137.626 234.627 139.803 238.34 139.803 241.418L139.803 324.01C139.803 324.982 140.813 326.054 141.435 325.743L152.045 320.435C154.016 319.449 157.091 321.309 158.915 324.589L170.136 344.776C171.959 348.056 171.84 351.514 169.869 352.5L121.718 376.587Z" fill="url(#paint3_linear_4647_121763)"/>
</g>
<g opacity="0.4" filter="url(#filter3_i_4647_121763)">
<path d="M37.4241 61.3981C24.0101 64.3414 20.9979 82.1162 32.6934 89.3144L196.751 190.288C199.3 191.857 202.363 192.365 205.282 191.704L498.63 125.273C508.845 122.96 510.851 109.281 501.73 104.132L325.05 4.404C320.026 1.56797 314.133 0.683631 308.497 1.92014L37.4241 61.3981Z" fill="url(#paint4_linear_4647_121763)"/>
</g>
<circle cx="204.642" cy="194.669" r="6" fill="#E3F7FE"/>
<path d="M11.6248 81.8303C19.3486 79.8381 22.7436 83.3214 32.2918 88.7562C27.0525 84.0441 25.5566 80.6492 26.0011 74.0334C27.4682 67.8272 29.451 65.2262 35.7977 61.805C10.0325 69.4391 1.11105 78.3873 0.427979 94.9442C1.77998 88.9989 3.9969 84.669 11.6248 81.8303Z" fill="#DAF4FD"/>
<path fill-rule="evenodd" clip-rule="evenodd" d="M457.131 303.486L457.125 303.488C457.128 304.473 457.072 305.477 456.955 306.498L448.998 375.759C448.141 383.219 444.101 390.586 438.001 395.814L388.831 437.957C380.777 444.86 370.476 446.909 362.598 443.175L314.505 420.379C308.538 417.551 304.717 411.747 304.103 404.58L298.397 338.037C298.313 337.057 298.29 336.067 298.326 335.075L298.323 335.075C298.981 295.39 320.532 275.498 339.156 258.307C341.023 256.583 342.861 254.887 344.646 253.2C341.23 260.566 338.408 270.485 346.099 268.955C360.681 266.055 374.281 222.274 379.071 199.143C411.485 218.366 457.812 262.43 457.131 303.486ZM428.171 317.873L427.364 330.167C430.19 329.101 433.002 327.995 435.801 326.85C437.945 330.295 439.134 334.556 439.055 339.368C438.84 352.283 429.558 364.841 417.498 369.505L410.543 384.259L411.406 371.124C397.749 373.134 387.071 363.773 387.305 349.662C387.348 347.097 387.748 344.547 388.456 342.07C399.581 339.446 410.553 336.199 421.335 332.374L428.171 317.873ZM316.736 363.701C316.816 358.889 318.154 354.127 320.426 349.804C335.704 350 351.457 348.837 367.58 346.226C368.21 348.437 368.528 350.844 368.485 353.407C368.244 367.975 356.463 382.09 342.173 384.932C327.883 387.775 316.494 378.269 316.736 363.701Z" fill="white" fill-opacity="0.32"/>
<g filter="url(#filter4_f_4647_121763)">
<mask id="path-9-inside-1_4647_121763" fill="white">
<path fill-rule="evenodd" clip-rule="evenodd" d="M457.131 303.486L457.125 303.488C457.128 304.473 457.072 305.477 456.955 306.498L448.998 375.759C448.141 383.219 444.101 390.586 438.001 395.814L388.831 437.957C380.777 444.86 370.476 446.909 362.598 443.175L314.505 420.379C308.538 417.551 304.717 411.747 304.103 404.58L298.397 338.037C298.313 337.057 298.29 336.067 298.326 335.075L298.323 335.075C298.981 295.39 320.532 275.498 339.156 258.307C341.023 256.583 342.861 254.887 344.646 253.2C341.23 260.566 338.408 270.485 346.099 268.955C360.681 266.055 374.281 222.274 379.071 199.143C411.485 218.366 457.812 262.43 457.131 303.486ZM428.174 317.876L427.366 330.171C430.192 329.105 433.005 327.999 435.804 326.854C437.948 330.299 439.137 334.559 439.057 339.372C438.843 352.287 429.561 364.845 417.5 369.509L410.546 384.262L411.408 371.128C397.752 373.137 387.074 363.776 387.308 349.665C387.351 347.101 387.751 344.55 388.459 342.073C399.584 339.45 410.555 336.203 421.337 332.378L428.174 317.876ZM316.739 363.701C316.818 358.891 318.156 354.129 320.428 349.807C335.706 350.003 351.46 348.841 367.583 346.229C368.213 348.439 368.53 350.845 368.488 353.408C368.246 367.976 356.466 382.09 342.176 384.933C327.886 387.775 316.497 378.27 316.739 363.701Z"/>
</mask>
<path d="M457.125 303.488L457.146 302.258L455.915 302.503L455.919 303.752L457.125 303.488ZM457.131 303.486L457.111 304.716L458.317 304.476L458.337 303.246L457.131 303.486ZM456.955 306.498L458.153 306.385L456.955 306.498ZM448.998 375.759L450.195 375.646L448.998 375.759ZM438.001 395.814L437.357 394.917L438.001 395.814ZM388.831 437.957L389.475 438.854L388.831 437.957ZM362.598 443.175L361.92 444.335L362.598 443.175ZM314.505 420.379L315.183 419.219L315.183 419.219L314.505 420.379ZM304.103 404.58L305.304 404.216L304.103 404.58ZM298.397 338.037L299.599 337.673L298.397 338.037ZM298.326 335.075L299.531 334.86L299.577 333.6L298.346 333.845L298.326 335.075ZM298.323 335.075L297.117 335.315L297.096 336.545L298.302 336.305L298.323 335.075ZM339.156 258.307L338.467 257.45L338.467 257.45L339.156 258.307ZM344.646 253.2L345.715 253.538L343.943 252.357L344.646 253.2ZM379.071 199.143L379.823 198.023L378.31 197.125L377.893 199.134L379.071 199.143ZM427.366 330.171L426.163 330.348L426.06 331.904L427.555 331.34L427.366 330.171ZM428.174 317.876L429.377 317.698L427.109 317.529L428.174 317.876ZM435.804 326.854L436.857 326.03L436.433 325.349L435.578 325.699L435.804 326.854ZM417.5 369.509L417.3 368.344L416.715 368.57L416.436 369.163L417.5 369.509ZM410.546 384.262L409.342 384.439L411.61 384.608L410.546 384.262ZM411.408 371.128L412.612 370.951L412.693 369.711L411.49 369.888L411.408 371.128ZM388.459 342.073L388.436 340.853L387.565 341.059L387.307 341.96L388.459 342.073ZM421.337 332.378L421.5 333.557L422.111 333.34L422.401 332.724L421.337 332.378ZM320.428 349.807L320.693 348.555L319.843 348.544L319.394 349.398L320.428 349.807ZM367.583 346.229L368.747 345.656L368.517 344.851L367.647 344.992L367.583 346.229ZM457.105 304.717L457.111 304.716L457.152 302.257L457.146 302.258L457.105 304.717ZM458.153 306.385C458.276 305.313 458.335 304.258 458.331 303.223L455.919 303.752C455.922 304.687 455.869 305.642 455.758 306.611L458.153 306.385ZM450.195 375.646L458.153 306.385L455.758 306.611L447.8 375.872L450.195 375.646ZM438.645 396.712C445.052 391.22 449.295 383.481 450.195 375.646L447.8 375.872C446.986 382.956 443.15 389.953 437.357 394.917L438.645 396.712ZM389.475 438.854L438.645 396.712L437.357 394.917L388.187 437.06L389.475 438.854ZM361.92 444.335C370.195 448.257 381.015 446.105 389.475 438.854L388.187 437.06C380.539 443.615 370.757 445.561 363.276 442.015L361.92 444.335ZM313.827 421.539L361.92 444.335L363.276 442.015L315.183 419.219L313.827 421.539ZM302.901 404.944C303.546 412.473 307.56 418.569 313.827 421.539L315.183 419.219C309.517 416.534 305.888 411.022 305.304 404.216L302.901 404.944ZM297.195 338.401L302.901 404.944L305.304 404.216L299.599 337.673L297.195 338.401ZM297.121 335.29C297.083 336.333 297.107 337.372 297.195 338.401L299.599 337.673C299.519 336.742 299.497 335.802 299.531 334.86L297.121 335.29ZM298.302 336.305L298.306 336.304L298.346 333.845L298.343 333.846L298.302 336.305ZM338.467 257.45C329.174 266.029 318.972 275.434 311.042 287.721C303.082 300.055 297.45 315.222 297.117 335.315L299.529 334.835C299.854 315.243 305.326 300.622 312.961 288.791C320.628 276.913 330.514 267.777 339.845 259.164L338.467 257.45ZM343.943 252.357C342.166 254.036 340.336 255.726 338.467 257.45L339.845 259.164C341.711 257.441 343.556 255.738 345.349 254.044L343.943 252.357ZM346.119 267.726C344.442 268.06 343.573 267.733 343.098 267.216C342.589 266.662 342.334 265.681 342.412 264.22C342.568 261.286 344.026 257.18 345.715 253.538L343.577 252.863C341.851 256.586 340.189 261.122 340.003 264.607C339.91 266.356 340.178 268.028 341.196 269.134C342.247 270.277 343.91 270.616 346.078 270.185L346.119 267.726ZM377.893 199.134C375.511 210.636 370.937 227.272 365.16 241.363C362.269 248.415 359.104 254.76 355.803 259.491C352.464 264.277 349.197 267.114 346.119 267.726L346.078 270.185C350.291 269.347 354.193 265.624 357.655 260.661C361.155 255.645 364.424 249.055 367.354 241.908C373.22 227.601 377.841 210.781 380.249 199.152L377.893 199.134ZM458.337 303.246C458.685 282.304 447.074 260.792 431.49 242.199C415.874 223.567 396.111 207.682 379.823 198.023L378.32 200.264C394.446 209.827 414.053 225.585 429.533 244.055C445.046 262.563 456.259 283.612 455.925 303.726L458.337 303.246ZM428.569 329.994L429.377 317.698L426.97 318.053L426.163 330.348L428.569 329.994ZM435.578 325.699C432.792 326.839 429.991 327.94 427.177 329.002L427.555 331.34C430.394 330.269 433.218 329.159 436.029 328.009L435.578 325.699ZM440.263 339.132C440.347 334.097 439.102 329.636 436.857 326.03L434.75 327.678C436.793 330.961 437.928 335.021 437.851 339.612L440.263 339.132ZM417.7 370.674C430.323 365.792 440.039 352.65 440.263 339.132L437.851 339.612C437.647 351.923 428.798 363.897 417.3 368.344L417.7 370.674ZM411.61 384.608L418.565 369.856L416.436 369.163L409.481 383.915L411.61 384.608ZM410.205 371.305L409.342 384.439L411.749 384.084L412.612 370.951L410.205 371.305ZM386.102 349.905C385.857 364.674 397.032 374.471 411.327 372.368L411.49 369.888C398.471 371.803 388.291 362.878 388.514 349.425L386.102 349.905ZM387.307 341.96C386.565 344.554 386.147 347.223 386.102 349.905L388.514 349.425C388.555 346.978 388.936 344.547 389.611 342.187L387.307 341.96ZM421.174 331.199C410.438 335.008 399.513 338.241 388.436 340.853L388.483 343.293C399.654 340.658 410.672 337.398 421.5 333.557L421.174 331.199ZM427.109 317.529L420.273 332.031L422.401 332.724L429.238 318.222L427.109 317.529ZM319.394 349.398C317.017 353.923 315.616 358.908 315.533 363.941L317.944 363.462C318.021 358.873 319.296 354.335 321.461 350.216L319.394 349.398ZM367.647 344.992C351.592 347.592 335.905 348.75 320.693 348.555L320.162 351.06C335.506 351.257 351.328 350.089 367.519 347.467L367.647 344.992ZM369.694 353.168C369.738 350.488 369.406 347.969 368.747 345.656L366.419 346.803C367.02 348.909 367.322 351.202 367.282 353.648L369.694 353.168ZM342.155 386.162C357.112 383.187 369.441 368.415 369.694 353.168L367.282 353.648C367.052 367.537 355.82 380.993 342.196 383.703L342.155 386.162ZM315.533 363.941C315.28 379.188 327.199 389.137 342.155 386.162L342.196 383.703C328.572 386.413 317.714 377.351 317.944 363.462L315.533 363.941Z" fill="url(#paint5_radial_4647_121763)" mask="url(#path-9-inside-1_4647_121763)"/>
</g>
<g filter="url(#filter5_f_4647_121763)">
<mask id="path-11-inside-2_4647_121763" fill="white">
<path fill-rule="evenodd" clip-rule="evenodd" d="M457.131 303.486L457.125 303.488C457.128 304.473 457.072 305.477 456.955 306.498L448.998 375.759C448.141 383.219 444.101 390.586 438.001 395.814L388.831 437.957C380.777 444.86 370.476 446.909 362.598 443.175L314.505 420.379C308.538 417.551 304.717 411.747 304.103 404.58L298.397 338.037C298.313 337.057 298.29 336.067 298.326 335.075L298.323 335.075C298.981 295.39 320.532 275.498 339.156 258.307C341.023 256.583 342.861 254.887 344.646 253.2C341.23 260.566 338.408 270.485 346.099 268.955C360.681 266.055 374.281 222.274 379.071 199.143C411.485 218.366 457.812 262.43 457.131 303.486ZM428.171 317.873L427.364 330.167C430.19 329.101 433.002 327.995 435.801 326.85C437.945 330.295 439.134 334.556 439.055 339.368C438.84 352.283 429.558 364.841 417.498 369.505L410.543 384.259L411.406 371.124C397.749 373.134 387.071 363.773 387.305 349.662C387.348 347.097 387.748 344.547 388.456 342.07C399.581 339.446 410.553 336.199 421.335 332.374L428.171 317.873ZM316.736 363.701C316.816 358.889 318.154 354.127 320.426 349.804C335.704 350 351.457 348.837 367.58 346.226C368.21 348.437 368.528 350.844 368.485 353.407C368.244 367.975 356.463 382.09 342.173 384.932C327.883 387.775 316.494 378.269 316.736 363.701Z"/>
</mask>
<path d="M457.125 303.488L457.146 302.258L455.915 302.503L455.919 303.752L457.125 303.488ZM457.131 303.486L457.111 304.716L458.317 304.476L458.337 303.246L457.131 303.486ZM456.955 306.498L458.153 306.385L456.955 306.498ZM448.998 375.759L450.195 375.646L448.998 375.759ZM438.001 395.814L437.357 394.917L438.001 395.814ZM388.831 437.957L389.475 438.854L388.831 437.957ZM362.598 443.175L361.92 444.335L362.598 443.175ZM314.505 420.379L315.183 419.219L315.183 419.219L314.505 420.379ZM304.103 404.58L305.304 404.216L304.103 404.58ZM298.397 338.037L299.599 337.673L298.397 338.037ZM298.326 335.075L299.531 334.86L299.577 333.6L298.346 333.845L298.326 335.075ZM298.323 335.075L297.117 335.315L297.096 336.545L298.302 336.305L298.323 335.075ZM339.156 258.307L338.467 257.45L338.467 257.45L339.156 258.307ZM344.646 253.2L345.715 253.538L343.943 252.357L344.646 253.2ZM379.071 199.143L379.823 198.023L378.31 197.125L377.893 199.134L379.071 199.143ZM427.364 330.167L426.16 330.345L426.058 331.9L427.553 331.337L427.364 330.167ZM428.171 317.873L429.375 317.695L427.107 317.526L428.171 317.873ZM435.801 326.85L436.854 326.026L436.43 325.345L435.575 325.695L435.801 326.85ZM417.498 369.505L417.298 368.34L416.713 368.567L416.434 369.159L417.498 369.505ZM410.543 384.259L409.34 384.436L411.608 384.605L410.543 384.259ZM411.406 371.124L412.609 370.947L412.691 369.707L411.488 369.884L411.406 371.124ZM388.456 342.07L388.433 340.85L387.562 341.055L387.304 341.956L388.456 342.07ZM421.335 332.374L421.498 333.553L422.109 333.336L422.399 332.72L421.335 332.374ZM320.426 349.804L320.692 348.551L319.842 348.54L319.393 349.395L320.426 349.804ZM367.58 346.226L368.743 345.652L368.514 344.848L367.644 344.989L367.58 346.226ZM457.105 304.717L457.111 304.716L457.152 302.257L457.146 302.258L457.105 304.717ZM458.153 306.385C458.276 305.313 458.335 304.258 458.331 303.223L455.919 303.752C455.922 304.687 455.869 305.642 455.758 306.611L458.153 306.385ZM450.195 375.646L458.153 306.385L455.758 306.611L447.8 375.872L450.195 375.646ZM438.645 396.712C445.052 391.22 449.295 383.481 450.195 375.646L447.8 375.872C446.986 382.956 443.15 389.953 437.357 394.917L438.645 396.712ZM389.475 438.854L438.645 396.712L437.357 394.917L388.187 437.06L389.475 438.854ZM361.92 444.335C370.195 448.257 381.015 446.105 389.475 438.854L388.187 437.06C380.539 443.615 370.757 445.561 363.276 442.015L361.92 444.335ZM313.827 421.539L361.92 444.335L363.276 442.015L315.183 419.219L313.827 421.539ZM302.901 404.944C303.546 412.473 307.56 418.569 313.827 421.539L315.183 419.219C309.517 416.534 305.888 411.022 305.304 404.216L302.901 404.944ZM297.195 338.401L302.901 404.944L305.304 404.216L299.599 337.673L297.195 338.401ZM297.121 335.29C297.083 336.333 297.107 337.372 297.195 338.401L299.599 337.673C299.519 336.742 299.497 335.802 299.531 334.86L297.121 335.29ZM298.302 336.305L298.306 336.304L298.346 333.845L298.343 333.846L298.302 336.305ZM338.467 257.45C329.174 266.029 318.972 275.434 311.042 287.721C303.082 300.055 297.45 315.222 297.117 335.315L299.529 334.835C299.854 315.243 305.326 300.622 312.961 288.791C320.628 276.913 330.514 267.777 339.845 259.164L338.467 257.45ZM343.943 252.357C342.166 254.036 340.336 255.726 338.467 257.45L339.845 259.164C341.711 257.441 343.556 255.738 345.349 254.044L343.943 252.357ZM346.119 267.726C344.442 268.06 343.573 267.733 343.098 267.216C342.589 266.662 342.334 265.681 342.412 264.22C342.568 261.286 344.026 257.18 345.715 253.538L343.577 252.863C341.851 256.586 340.189 261.122 340.003 264.607C339.91 266.356 340.178 268.028 341.196 269.134C342.247 270.277 343.91 270.616 346.078 270.185L346.119 267.726ZM377.893 199.134C375.511 210.636 370.937 227.272 365.16 241.363C362.269 248.415 359.104 254.76 355.803 259.491C352.464 264.277 349.197 267.114 346.119 267.726L346.078 270.185C350.291 269.347 354.193 265.624 357.655 260.661C361.155 255.645 364.424 249.055 367.354 241.908C373.22 227.601 377.841 210.781 380.249 199.152L377.893 199.134ZM458.337 303.246C458.685 282.304 447.074 260.792 431.49 242.199C415.874 223.567 396.111 207.682 379.823 198.023L378.32 200.264C394.446 209.827 414.053 225.585 429.533 244.055C445.046 262.563 456.259 283.612 455.925 303.726L458.337 303.246ZM428.567 329.99L429.375 317.695L426.968 318.05L426.16 330.345L428.567 329.99ZM435.575 325.695C432.789 326.835 429.989 327.936 427.175 328.998L427.553 331.337C430.391 330.266 433.216 329.155 436.026 328.005L435.575 325.695ZM440.26 339.128C440.344 334.093 439.099 329.633 436.854 326.026L434.747 327.674C436.791 330.958 437.925 335.018 437.849 339.608L440.26 339.128ZM417.698 370.67C430.321 365.788 440.036 352.646 440.26 339.128L437.849 339.608C437.644 351.92 428.796 363.893 417.298 368.34L417.698 370.67ZM411.608 384.605L418.563 369.852L416.434 369.159L409.479 383.912L411.608 384.605ZM410.203 371.302L409.34 384.436L411.747 384.081L412.609 370.947L410.203 371.302ZM386.099 349.902C385.854 364.671 397.03 374.468 411.324 372.364L411.488 369.884C398.468 371.8 388.288 362.875 388.511 349.422L386.099 349.902ZM387.304 341.956C386.562 344.55 386.144 347.22 386.099 349.902L388.511 349.422C388.552 346.975 388.933 344.544 389.608 342.183L387.304 341.956ZM421.172 331.195C410.436 335.004 399.511 338.237 388.433 340.85L388.48 343.29C399.652 340.655 410.67 337.395 421.498 333.553L421.172 331.195ZM427.107 317.526L420.271 332.028L422.399 332.72L429.236 318.219L427.107 317.526ZM319.393 349.395C317.014 353.921 315.613 358.907 315.53 363.941L317.942 363.461C318.018 358.871 319.294 354.333 321.46 350.213L319.393 349.395ZM367.644 344.989C351.59 347.589 335.903 348.746 320.692 348.551L320.161 351.056C335.504 351.253 351.325 350.086 367.515 347.463L367.644 344.989ZM369.691 353.167C369.736 350.486 369.403 347.967 368.743 345.652L366.416 346.8C367.017 348.906 367.32 351.201 367.279 353.647L369.691 353.167ZM342.153 386.161C357.109 383.186 369.438 368.415 369.691 353.167L367.279 353.647C367.049 367.536 355.818 380.993 342.193 383.703L342.153 386.161ZM315.53 363.941C315.277 379.188 327.196 389.136 342.153 386.161L342.193 383.703C328.569 386.413 317.711 377.35 317.942 363.461L315.53 363.941Z" fill="url(#paint6_radial_4647_121763)" mask="url(#path-11-inside-2_4647_121763)"/>
</g>
<defs>
<filter id="filter0_ii_4647_121763" x="203.424" y="107.771" width="346.63" height="424.618" filterUnits="userSpaceOnUse" color-interpolation-filters="sRGB">
<feFlood flood-opacity="0" result="BackgroundImageFix"/>
<feBlend mode="normal" in="SourceGraphic" in2="BackgroundImageFix" result="shape"/>
<feColorMatrix in="SourceAlpha" type="matrix" values="0 0 0 0 0 0 0 0 0 0 0 0 0 0 0 0 0 0 127 0" result="hardAlpha"/>
<feOffset dx="20.9938" dy="-15.2682"/>
<feGaussianBlur stdDeviation="9.52684"/>
<feComposite in2="hardAlpha" operator="arithmetic" k2="-1" k3="1"/>
<feColorMatrix type="matrix" values="0 0 0 0 1 0 0 0 0 1 0 0 0 0 1 0 0 0 0.85 0"/>
<feBlend mode="normal" in2="shape" result="effect1_innerShadow_4647_121763"/>
<feColorMatrix in="SourceAlpha" type="matrix" values="0 0 0 0 0 0 0 0 0 0 0 0 0 0 0 0 0 0 127 0" result="hardAlpha"/>
<feOffset dy="20.9938"/>
<feGaussianBlur stdDeviation="3.81706"/>
<feComposite in2="hardAlpha" operator="arithmetic" k2="-1" k3="1"/>
<feColorMatrix type="matrix" values="0 0 0 0 1 0 0 0 0 1 0 0 0 0 1 0 0 0 0.51 0"/>
<feBlend mode="normal" in2="effect1_innerShadow_4647_121763" result="effect2_innerShadow_4647_121763"/>
</filter>
<filter id="filter1_ii_4647_121763" x="-5.29761" y="73.4063" width="208.72" height="452.491" filterUnits="userSpaceOnUse" color-interpolation-filters="sRGB">
<feFlood flood-opacity="0" result="BackgroundImageFix"/>
<feBlend mode="normal" in="SourceGraphic" in2="BackgroundImageFix" result="shape"/>
<feColorMatrix in="SourceAlpha" type="matrix" values="0 0 0 0 0 0 0 0 0 0 0 0 0 0 0 0 0 0 127 0" result="hardAlpha"/>
<feOffset dx="-5.72559" dy="13.3597"/>
<feGaussianBlur stdDeviation="9.52684"/>
<feComposite in2="hardAlpha" operator="arithmetic" k2="-1" k3="1"/>
<feColorMatrix type="matrix" values="0 0 0 0 1 0 0 0 0 1 0 0 0 0 1 0 0 0 0.85 0"/>
<feBlend mode="normal" in2="shape" result="effect1_innerShadow_4647_121763"/>
<feColorMatrix in="SourceAlpha" type="matrix" values="0 0 0 0 0 0 0 0 0 0 0 0 0 0 0 0 0 0 127 0" result="hardAlpha"/>
<feOffset dy="-24.8109"/>
<feGaussianBlur stdDeviation="3.81706"/>
<feComposite in2="hardAlpha" operator="arithmetic" k2="-1" k3="1"/>
<feColorMatrix type="matrix" values="0 0 0 0 1 0 0 0 0 1 0 0 0 0 1 0 0 0 0.47 0"/>
<feBlend mode="normal" in2="effect1_innerShadow_4647_121763" result="effect2_innerShadow_4647_121763"/>
</filter>
<filter id="filter2_i_4647_121763" x="26.4337" y="201.889" width="144.995" height="174.973" filterUnits="userSpaceOnUse" color-interpolation-filters="sRGB">
<feFlood flood-opacity="0" result="BackgroundImageFix"/>
<feBlend mode="normal" in="SourceGraphic" in2="BackgroundImageFix" result="shape"/>
<feColorMatrix in="SourceAlpha" type="matrix" values="0 0 0 0 0 0 0 0 0 0 0 0 0 0 0 0 0 0 127 0" result="hardAlpha"/>
<feOffset dx="1.11442" dy="1.11442"/>
<feComposite in2="hardAlpha" operator="arithmetic" k2="-1" k3="1"/>
<feColorMatrix type="matrix" values="0 0 0 0 1 0 0 0 0 1 0 0 0 0 1 0 0 0 1 0"/>
<feBlend mode="normal" in2="shape" result="effect1_innerShadow_4647_121763"/>
</filter>
<filter id="filter3_i_4647_121763" x="21.0238" y="-14.7472" width="486.533" height="206.734" filterUnits="userSpaceOnUse" color-interpolation-filters="sRGB">
<feFlood flood-opacity="0" result="BackgroundImageFix"/>
<feBlend mode="normal" in="SourceGraphic" in2="BackgroundImageFix" result="shape"/>
<feColorMatrix in="SourceAlpha" type="matrix" values="0 0 0 0 0 0 0 0 0 0 0 0 0 0 0 0 0 0 127 0" result="hardAlpha"/>
<feOffset dx="-4.397" dy="-16.1223"/>
<feGaussianBlur stdDeviation="9.52684"/>
<feComposite in2="hardAlpha" operator="arithmetic" k2="-1" k3="1"/>
<feColorMatrix type="matrix" values="0 0 0 0 1 0 0 0 0 1 0 0 0 0 1 0 0 0 0.64 0"/>
<feBlend mode="normal" in2="shape" result="effect1_innerShadow_4647_121763"/>
</filter>
<filter id="filter4_f_4647_121763" x="297.08" y="197.914" width="161.288" height="248.332" filterUnits="userSpaceOnUse" color-interpolation-filters="sRGB">
<feFlood flood-opacity="0" result="BackgroundImageFix"/>
<feBlend mode="normal" in="SourceGraphic" in2="BackgroundImageFix" result="shape"/>
<feGaussianBlur stdDeviation="0.6148" result="effect1_foregroundBlur_4647_121763"/>
</filter>
<filter id="filter5_f_4647_121763" x="297.08" y="197.914" width="161.288" height="248.332" filterUnits="userSpaceOnUse" color-interpolation-filters="sRGB">
<feFlood flood-opacity="0" result="BackgroundImageFix"/>
<feBlend mode="normal" in="SourceGraphic" in2="BackgroundImageFix" result="shape"/>
<feGaussianBlur stdDeviation="0.6148" result="effect1_foregroundBlur_4647_121763"/>
</filter>
<linearGradient id="paint0_linear_4647_121763" x1="467.977" y1="192.002" x2="233.47" y2="531.304" gradientUnits="userSpaceOnUse">
<stop stop-color="white" stop-opacity="0.31"/>
<stop offset="1" stop-color="#C6F5FF" stop-opacity="0.86"/>
</linearGradient>
<linearGradient id="paint1_linear_4647_121763" x1="164.368" y1="151.639" x2="-109.448" y2="370.994" gradientUnits="userSpaceOnUse">
<stop stop-color="white" stop-opacity="0.31"/>
<stop offset="1" stop-color="#C6F5FF" stop-opacity="0.86"/>
</linearGradient>
<linearGradient id="paint2_linear_4647_121763" x1="84.3076" y1="277.843" x2="24.4252" y2="277.843" gradientUnits="userSpaceOnUse">
<stop stop-color="#F1FFFD"/>
<stop offset="1" stop-color="#F1FFFD" stop-opacity="0.4"/>
</linearGradient>
<linearGradient id="paint3_linear_4647_121763" x1="113.555" y1="300.909" x2="173.437" y2="300.909" gradientUnits="userSpaceOnUse">
<stop stop-color="#F1FFFD"/>
<stop offset="1" stop-color="#F1FFFD" stop-opacity="0.4"/>
</linearGradient>
<linearGradient id="paint4_linear_4647_121763" x1="240.337" y1="-8.4817e-07" x2="180.219" y2="337.81" gradientUnits="userSpaceOnUse">
<stop stop-color="#F1FDFF" stop-opacity="0.31"/>
<stop offset="1" stop-color="#F9FEFF"/>
</linearGradient>
<radialGradient id="paint5_radial_4647_121763" cx="0" cy="0" r="1" gradientUnits="userSpaceOnUse" gradientTransform="translate(387.65 205.564) rotate(55.1078) scale(108.746 86.602)">
<stop stop-color="white" stop-opacity="0.6"/>
<stop offset="1" stop-color="white" stop-opacity="0"/>
</radialGradient>
<radialGradient id="paint6_radial_4647_121763" cx="0" cy="0" r="1" gradientUnits="userSpaceOnUse" gradientTransform="translate(387.65 205.564) rotate(55.1078) scale(108.746 86.602)">
<stop stop-color="white" stop-opacity="0.6"/>
<stop offset="1" stop-color="white" stop-opacity="0"/>
</radialGradient>
</defs>
</svg>
